<?xml version="1.0" encoding="UTF-8"?>
<!DOCTYPE svg PUBLIC "-//W3C//DTD SVG 1.1//EN" "http://www.w3.org/Graphics/SVG/1.1/DTD/svg11.dtd">
<svg xmlns="http://www.w3.org/2000/svg" version="1.1" width="122px" height="126px" style="shape-rendering:geometricPrecision; text-rendering:geometricPrecision; image-rendering:optimizeQuality; fill-rule:evenodd; clip-rule:evenodd" xmlns:xlink="http://www.w3.org/1999/xlink">
<g><path style="opacity:1" fill="#ecf5f0" d="M 87.5,11.5 C 87.7376,13.4044 88.7376,14.7377 90.5,15.5C 90.427,17.0269 91.0937,18.0269 92.5,18.5C 93.6737,19.5137 94.3404,20.847 94.5,22.5C 94.9925,24.8185 95.9925,26.8185 97.5,28.5C 99.7719,34.0493 101.772,39.716 103.5,45.5C 103.936,57.243 103.436,68.9097 102,80.5C 99.6943,85.6133 96.5277,90.1133 92.5,94C 87.2685,97.4447 81.9351,100.611 76.5,103.5C 74.8185,105.008 72.8185,106.008 70.5,106.5C 67.911,106.461 65.911,107.461 64.5,109.5C 63.609,110.11 62.609,110.443 61.5,110.5C 58.3183,110.584 55.985,111.917 54.5,114.5C 54.1667,114.5 53.8333,114.5 53.5,114.5C 49.2186,115.136 45.2186,116.636 41.5,119C 35.418,119.788 29.418,119.621 23.5,118.5C 23.0474,114.307 21.8808,110.307 20,106.5C 19.8299,96.991 19.3299,87.6577 18.5,78.5C 18.287,71.7895 18.6204,65.1228 19.5,58.5C 20.3643,52.6083 21.3643,46.6083 22.5,40.5C 23.9063,40.0269 24.573,39.0269 24.5,37.5C 25.8333,36.8333 26.8333,35.8333 27.5,34.5C 29.7488,33.9202 31.4154,32.5869 32.5,30.5C 36.1916,28.6563 39.5249,26.3229 42.5,23.5C 42.9731,22.0937 43.9731,21.427 45.5,21.5C 47.4044,21.2624 48.7377,20.2624 49.5,18.5C 51.0269,18.573 52.0269,17.9063 52.5,16.5C 58.0049,13.1891 63.6715,10.0224 69.5,7C 76.3968,5.32541 82.3968,6.82541 87.5,11.5 Z M 72.5,11.5 C 71.8902,12.391 71.5569,13.391 71.5,14.5C 69.7376,15.2623 68.7376,16.5956 68.5,18.5C 66.9373,19.9448 65.604,21.6115 64.5,23.5C 61.5293,25.4426 59.5293,28.1092 58.5,31.5C 56.8333,32.5 55.5,33.8333 54.5,35.5C 51.1583,37.8361 47.825,40.1695 44.5,42.5C 40.2679,44.4002 36.6012,47.0669 33.5,50.5C 32.1529,51.1712 30.9862,51.1712 30,50.5C 29.1667,48 28.3333,45.5 27.5,43C 29.3198,40.3478 31.3198,37.8478 33.5,35.5C 35.4044,35.2624 36.7377,34.2624 37.5,32.5C 39.0269,32.573 40.0269,31.9063 40.5,30.5C 43.672,28.7481 46.672,26.7481 49.5,24.5C 53.7321,22.5998 57.3988,19.9331 60.5,16.5C 62.0269,16.573 63.0269,15.9063 63.5,14.5C 66.4061,13.2134 69.4061,12.2134 72.5,11.5 Z M 80.5,12.5 C 82.1667,13.8333 83.8333,15.1667 85.5,16.5C 88.1055,22.4219 91.1055,28.0885 94.5,33.5C 95.4607,38.2559 97.1273,42.7559 99.5,47C 94.9633,51.3688 90.6299,55.8688 86.5,60.5C 85.5,60.8333 84.8333,61.5 84.5,62.5C 82.8255,59.4928 82.1588,56.1595 82.5,52.5C 82.5,51.1667 82.5,49.8333 82.5,48.5C 82.2962,45.4824 81.9629,42.4824 81.5,39.5C 81.5,37.8333 81.5,36.1667 81.5,34.5C 81.2962,31.4824 80.9629,28.4824 80.5,25.5C 80.5,24.8333 80.5,24.1667 80.5,23.5C 80.5,19.8333 80.5,16.1667 80.5,12.5 Z M 75.5,13.5 C 77.0779,28.9782 78.0779,44.6448 78.5,60.5C 77.5,59.8333 76.5,59.1667 75.5,58.5C 74.9202,56.2512 73.5869,54.5846 71.5,53.5C 71.573,51.9731 70.9063,50.9731 69.5,50.5C 69.2624,48.5956 68.2624,47.2623 66.5,46.5C 66.2624,44.5956 65.2624,43.2623 63.5,42.5C 63.2624,40.5956 62.2624,39.2623 60.5,38.5C 59.1667,36.8333 59.1667,35.1667 60.5,33.5C 62.2624,32.7377 63.2624,31.4044 63.5,29.5C 64.3382,29.1583 64.6716,28.4916 64.5,27.5C 65.1667,27.5 65.5,27.1667 65.5,26.5C 67.914,25.0892 69.5806,23.0892 70.5,20.5C 71.9063,20.0269 72.573,19.0269 72.5,17.5C 73.1667,17.5 73.5,17.1667 73.5,16.5C 74.9063,16.0269 75.573,15.0269 75.5,13.5 Z M 55.5,42.5 C 53.546,47.6212 51.8794,52.9545 50.5,58.5C 50.2528,59.7133 49.5862,60.38 48.5,60.5C 47.791,59.596 46.791,59.2627 45.5,59.5C 41.3772,57.6853 37.3772,55.6853 33.5,53.5C 39.3883,50.6068 44.7217,46.9401 49.5,42.5C 51.4258,41.7577 53.2591,40.7577 55,39.5C 55.4828,40.448 55.6495,41.448 55.5,42.5 Z M 27.5,52.5 C 27.2627,53.791 27.596,54.791 28.5,55.5C 31.2165,65.6496 34.5499,75.6496 38.5,85.5C 34.7655,93.7098 31.4322,102.043 28.5,110.5C 28.5,110.833 28.5,111.167 28.5,111.5C 26.2862,109.424 24.7862,106.758 24,103.5C 23.4701,92.823 23.6368,82.1564 24.5,71.5C 24.5,69.1667 24.5,66.8333 24.5,64.5C 25.0892,59.5195 25.5892,54.5195 26,49.5C 26.2321,50.7375 26.7321,51.7375 27.5,52.5 Z M 65.5,51.5 C 66.1667,51.8333 66.8333,52.1667 67.5,52.5C 67.5,53.1667 67.8333,53.5 68.5,53.5C 68.7376,55.4044 69.7376,56.7377 71.5,57.5C 72.5293,60.8908 74.5293,63.5574 77.5,65.5C 77.6107,66.1174 77.944,66.6174 78.5,67C 76.6298,69.0396 74.6298,70.8729 72.5,72.5C 72.7373,71.209 72.404,70.209 71.5,69.5C 70.1081,65.0515 68.4414,60.7181 66.5,56.5C 66.3713,54.7839 66.038,53.1172 65.5,51.5 Z M 98.5,52.5 C 99.641,60.6916 99.4744,69.0249 98,77.5C 96.4226,80.9892 94.5893,84.3226 92.5,87.5C 90.1633,89.6664 87.6633,91.6664 85,93.5C 84.5045,91.5273 84.3379,89.5273 84.5,87.5C 84.5,85.8333 84.5,84.1667 84.5,82.5C 84.0843,77.5068 83.7509,72.5068 83.5,67.5C 85.8333,65.8333 87.8333,63.8333 89.5,61.5C 91.9113,60.483 93.578,58.8163 94.5,56.5C 96.1667,55.5 97.5,54.1667 98.5,52.5 Z M 63.5,56.5 C 63.595,58.7857 64.2616,60.7857 65.5,62.5C 65.472,64.5824 66.1387,66.4157 67.5,68C 65.9069,68.9487 64.5736,70.1154 63.5,71.5C 61.2433,71.9617 59.2433,72.9617 57.5,74.5C 56.1455,71.4083 54.8122,68.4083 53.5,65.5C 53.5,64.8333 53.5,64.1667 53.5,63.5C 56.8153,61.1919 60.1486,58.8586 63.5,56.5 Z M 32.5,59.5 C 32.56,58.9569 32.8933,58.6236 33.5,58.5C 37.5258,60.1818 41.5258,61.8485 45.5,63.5C 46.8333,63.5 48.1667,63.5 49.5,63.5C 50.5259,68.2727 51.8592,72.9393 53.5,77.5C 51.9731,77.427 50.9731,78.0937 50.5,79.5C 47.3777,80.5612 44.3777,81.8946 41.5,83.5C 41.2671,80.4582 40.2671,77.7916 38.5,75.5C 38.2671,72.4582 37.2671,69.7916 35.5,67.5C 35.2671,64.4582 34.2671,61.7916 32.5,59.5 Z M 57.5,45.5 C 58.8333,47.8333 60.1667,50.1667 61.5,52.5C 61.5,52.8333 61.5,53.1667 61.5,53.5C 59.2459,54.4151 57.2459,55.7484 55.5,57.5C 56.4855,53.5568 57.1522,49.5568 57.5,45.5 Z M 78.5,71.5 C 79.2389,71.369 79.9056,71.5357 80.5,72C 80.1727,74.6849 80.1727,77.5182 80.5,80.5C 80.8064,83.3854 80.4731,86.0521 79.5,88.5C 78.4623,84.7518 77.129,81.0851 75.5,77.5C 76.5186,75.4893 77.5186,73.4893 78.5,71.5 Z M 64.5,81.5 C 59.8604,85.4729 55.5271,89.8062 51.5,94.5C 50.1667,95.1667 49.1667,96.1667 48.5,97.5C 46.8564,97.8102 45.8564,98.8102 45.5,100.5C 40.5584,104.103 35.8918,108.103 31.5,112.5C 31.8333,111.167 32.1667,109.833 32.5,108.5C 33.9313,107.22 34.5979,105.553 34.5,103.5C 35.6737,102.486 36.3404,101.153 36.5,99.5C 38.9308,95.8892 40.5975,91.8892 41.5,87.5C 41.8333,87.5 42.1667,87.5 42.5,87.5C 43.7095,87.0679 44.7095,86.4013 45.5,85.5C 47.0269,85.573 48.0269,84.9063 48.5,83.5C 53.1651,82.1722 57.1651,79.8389 60.5,76.5C 62.0269,76.573 63.0269,75.9063 63.5,74.5C 65.258,74.1231 66.9246,73.4565 68.5,72.5C 68.8333,73.1667 69.1667,73.8333 69.5,74.5C 68.2305,77.105 66.5639,79.4384 64.5,81.5 Z M 76.5,88.5 C 77.1667,91.5 77.8333,94.5 78.5,97.5C 76.0462,98.2271 73.7128,99.2271 71.5,100.5C 68.7594,100.707 66.4261,101.707 64.5,103.5C 63.391,103.557 62.391,103.89 61.5,104.5C 58.9684,105.596 56.6351,106.929 54.5,108.5C 53.5084,108.328 52.8417,108.662 52.5,109.5C 49.0878,110.042 46.0878,111.375 43.5,113.5C 41.847,113.66 40.5137,114.326 39.5,115.5C 37.8008,115.66 36.1341,115.494 34.5,115C 38.3981,111.271 42.0648,107.438 45.5,103.5C 48.0892,102.581 50.0892,100.914 51.5,98.5C 52.5,98.1667 53.1667,97.5 53.5,96.5C 58.5,92.1667 63.1667,87.5 67.5,82.5C 69.371,82.1412 70.871,81.1412 72,79.5C 73.0033,82.8402 74.5033,85.8402 76.5,88.5 Z"/></g>
<g><path style="opacity:0.745" fill="#8ec6a8" d="M 87.5,11.5 C 82.3968,6.82541 76.3968,5.32541 69.5,7C 63.6715,10.0224 58.0049,13.1891 52.5,16.5C 60.0054,8.27455 69.3387,4.44121 80.5,5C 83.7864,6.28168 86.1197,8.44835 87.5,11.5 Z"/></g>
<g><path style="opacity:0.431" fill="#86c1a1" d="M 74.5,9.5 C 74.7271,11.9328 73.7271,13.5994 71.5,14.5C 71.5569,13.391 71.8902,12.391 72.5,11.5C 69.4061,12.2134 66.4061,13.2134 63.5,14.5C 66.4974,11.5035 70.164,9.83686 74.5,9.5 Z"/></g>
<g><path style="opacity:0.58" fill="#7dbd9a" d="M 80.5,12.5 C 80.5,12.1667 80.5,11.8333 80.5,11.5C 83.1667,12.1667 84.8333,13.8333 85.5,16.5C 83.8333,15.1667 82.1667,13.8333 80.5,12.5 Z"/></g>
<g><path style="opacity:0.792" fill="#93c8ab" d="M 87.5,11.5 C 89.2624,12.2623 90.2624,13.5956 90.5,15.5C 88.7376,14.7377 87.7376,13.4044 87.5,11.5 Z"/></g>
<g><path style="opacity:0.031" fill="#68b38b" d="M 75.5,13.5 C 75.573,15.0269 74.9063,16.0269 73.5,16.5C 73.427,14.9731 74.0937,13.9731 75.5,13.5 Z"/></g>
<g><path style="opacity:0.055" fill="#61af85" d="M 63.5,14.5 C 63.0269,15.9063 62.0269,16.573 60.5,16.5C 60.9731,15.0937 61.9731,14.427 63.5,14.5 Z"/></g>
<g><path style="opacity:0.545" fill="#81bf9c" d="M 71.5,14.5 C 71.2624,16.4044 70.2624,17.7377 68.5,18.5C 68.7376,16.5956 69.7376,15.2623 71.5,14.5 Z"/></g>
<g><path style="opacity:0.784" fill="#95c9ac" d="M 52.5,16.5 C 52.0269,17.9063 51.0269,18.573 49.5,18.5C 49.9731,17.0937 50.9731,16.427 52.5,16.5 Z"/></g>
<g><path style="opacity:0.975" fill="#d0e7da" d="M 74.5,9.5 C 75.5,10.5 76.5,11.5 77.5,12.5C 76.5084,12.3284 75.8417,12.6618 75.5,13.5C 74.0937,13.9731 73.427,14.9731 73.5,16.5C 73.5,17.1667 73.1667,17.5 72.5,17.5C 71.0937,17.9731 70.427,18.9731 70.5,20.5C 67.9829,21.8927 66.3163,23.8927 65.5,26.5C 65.5,27.1667 65.1667,27.5 64.5,27.5C 64.5,26.8333 64.5,26.1667 64.5,25.5C 64.5,24.8333 64.5,24.1667 64.5,23.5C 65.604,21.6115 66.9373,19.9448 68.5,18.5C 70.2624,17.7377 71.2624,16.4044 71.5,14.5C 73.7271,13.5994 74.7271,11.9328 74.5,9.5 Z"/></g>
<g><path style="opacity:0.314" fill="#63b087" d="M 90.5,15.5 C 91.9063,15.9731 92.573,16.9731 92.5,18.5C 91.0937,18.0269 90.427,17.0269 90.5,15.5 Z"/></g>
<g><path style="opacity:0.024" fill="#6bb58d" d="M 72.5,17.5 C 72.573,19.0269 71.9063,20.0269 70.5,20.5C 70.427,18.9731 71.0937,17.9731 72.5,17.5 Z"/></g>
<g><path style="opacity:0.722" fill="#96c9ad" d="M 49.5,18.5 C 48.7377,20.2624 47.4044,21.2624 45.5,21.5C 46.2623,19.7376 47.5956,18.7376 49.5,18.5 Z"/></g>
<g><path style="opacity:0.02" fill="#7cbd9a" d="M 60.5,16.5 C 57.3988,19.9331 53.7321,22.5998 49.5,24.5C 52.6012,21.0669 56.2679,18.4002 60.5,16.5 Z"/></g>
<g><path style="opacity:0.176" fill="#90c7a9" d="M 80.5,11.5 C 79.1667,11.8333 79.1667,12.1667 80.5,12.5C 80.5,16.1667 80.5,19.8333 80.5,23.5C 78.3954,19.4302 78.0621,15.0969 79.5,10.5C 80.1067,10.6236 80.44,10.9569 80.5,11.5 Z"/></g>
<g><path style="opacity:0.243" fill="#7ebe9c" d="M 42.5,23.5 C 39.5249,26.3229 36.1916,28.6563 32.5,30.5C 35.1719,27.1688 38.5053,24.8355 42.5,23.5 Z"/></g>
<g><path style="opacity:0.635" fill="#78bb96" d="M 64.5,23.5 C 64.5,24.1667 64.5,24.8333 64.5,25.5C 62.5,27.5 60.5,29.5 58.5,31.5C 59.5293,28.1092 61.5293,25.4426 64.5,23.5 Z"/></g>
<g><path style="opacity:0.812" fill="#8dc5a6" d="M 70.5,20.5 C 69.5806,23.0892 67.914,25.0892 65.5,26.5C 66.3163,23.8927 67.9829,21.8927 70.5,20.5 Z"/></g>
<g><path style="opacity:0.137" fill="#4ea676" d="M 94.5,22.5 C 96.539,23.911 97.539,25.911 97.5,28.5C 95.9925,26.8185 94.9925,24.8185 94.5,22.5 Z"/></g>
<g><path style="opacity:0.388" fill="#70b790" d="M 85.5,16.5 C 89.7452,21.437 92.7452,27.1037 94.5,33.5C 91.1055,28.0885 88.1055,22.4219 85.5,16.5 Z"/></g>
<g><path style="opacity:0.024" fill="#5eae83" d="M 40.5,30.5 C 40.0269,31.9063 39.0269,32.573 37.5,32.5C 37.9731,31.0937 38.9731,30.427 40.5,30.5 Z"/></g>
<g><path style="opacity:0.012" fill="#66b28a" d="M 63.5,29.5 C 63.2624,31.4044 62.2624,32.7377 60.5,33.5C 60.7376,31.5956 61.7376,30.2623 63.5,29.5 Z"/></g>
<g><path style="opacity:0.694" fill="#88c3a3" d="M 80.5,25.5 C 80.9629,28.4824 81.2962,31.4824 81.5,34.5C 80.2353,33.4855 79.5687,31.9855 79.5,30C 79.5085,28.2933 79.8418,26.7933 80.5,25.5 Z"/></g>
<g><path style="opacity:0.914" fill="#9fcfb5" d="M 32.5,30.5 C 31.4154,32.5869 29.7488,33.9202 27.5,34.5C 28.5846,32.4131 30.2512,31.0798 32.5,30.5 Z"/></g>
<g><path style="opacity:0.592" fill="#82bf9d" d="M 58.5,31.5 C 58.1667,33.8333 56.8333,35.1667 54.5,35.5C 55.5,33.8333 56.8333,32.5 58.5,31.5 Z"/></g>
<g><path style="opacity:0.035" fill="#82c09f" d="M 37.5,32.5 C 36.7377,34.2624 35.4044,35.2624 33.5,35.5C 34.2623,33.7376 35.5956,32.7376 37.5,32.5 Z"/></g>
<g><path style="opacity:0.129" fill="#6db68f" d="M 60.5,33.5 C 59.1667,35.1667 59.1667,36.8333 60.5,38.5C 57.8333,36.8333 57.8333,35.1667 60.5,33.5 Z"/></g>
<g><path style="opacity:0.569" fill="#7abc99" d="M 27.5,34.5 C 26.8333,35.8333 25.8333,36.8333 24.5,37.5C 24.5,35.5 25.5,34.5 27.5,34.5 Z"/></g>
<g><path style="opacity:0.047" fill="#80bf9d" d="M 55.5,42.5 C 55.6495,41.448 55.4828,40.448 55,39.5C 53.2591,40.7577 51.4258,41.7577 49.5,42.5C 50.1667,41.5 50.8333,40.5 51.5,39.5C 53.0443,39.2969 54.3777,38.6302 55.5,37.5C 56.7879,39.2985 56.7879,40.9652 55.5,42.5 Z"/></g>
<g><path style="opacity:0.498" fill="#8dc5a7" d="M 24.5,37.5 C 24.573,39.0269 23.9063,40.0269 22.5,40.5C 22.427,38.9731 23.0937,37.9731 24.5,37.5 Z"/></g>
<g><path style="opacity:0.561" fill="#6ab48c" d="M 60.5,38.5 C 62.2624,39.2623 63.2624,40.5956 63.5,42.5C 61.7376,41.7377 60.7376,40.4044 60.5,38.5 Z"/></g>
<g><path style="opacity:0.231" fill="#60b086" d="M 81.5,39.5 C 81.9629,42.4824 82.2962,45.4824 82.5,48.5C 80.5185,45.6274 80.1851,42.6274 81.5,39.5 Z"/></g>
<g><path style="opacity:0.118" fill="#55aa7c" d="M 97.5,28.5 C 101.18,33.5382 103.514,39.2049 104.5,45.5C 104.167,45.5 103.833,45.5 103.5,45.5C 101.772,39.716 99.7719,34.0493 97.5,28.5 Z"/></g>
<g><path style="opacity:0.21" fill="#75b994" d="M 44.5,42.5 C 41.3988,45.9331 37.7321,48.5998 33.5,50.5C 36.6012,47.0669 40.2679,44.4002 44.5,42.5 Z"/></g>
<g><path style="opacity:0.776" fill="#83c1a0" d="M 22.5,40.5 C 21.3643,46.6083 20.3643,52.6083 19.5,58.5C 18.9502,52.1082 19.9502,46.1082 22.5,40.5 Z"/></g>
<g><path style="opacity:0.133" fill="#72b892" d="M 55.5,42.5 C 54.5817,48.9213 53.2484,55.2546 51.5,61.5C 50.209,61.7373 49.209,61.404 48.5,60.5C 49.5862,60.38 50.2528,59.7133 50.5,58.5C 51.8794,52.9545 53.546,47.6212 55.5,42.5 Z"/></g>
<g><path style="opacity:0.455" fill="#72b893" d="M 63.5,42.5 C 65.2624,43.2623 66.2624,44.5956 66.5,46.5C 64.7376,45.7377 63.7376,44.4044 63.5,42.5 Z"/></g>
<g><path style="opacity:0.067" fill="#59ab7e" d="M 64.5,48.5 C 63.8333,48.5 63.5,48.8333 63.5,49.5C 61.8253,47.8212 60.992,45.8212 61,43.5C 62.6692,44.8463 63.8358,46.513 64.5,48.5 Z"/></g>
<g><path style="opacity:0.494" fill="#78bb97" d="M 66.5,46.5 C 68.2624,47.2623 69.2624,48.5956 69.5,50.5C 68.5,49.8333 67.5,49.1667 66.5,48.5C 66.5,47.8333 66.5,47.1667 66.5,46.5 Z"/></g>
<g><path style="opacity:0.961" fill="#c4e0d0" d="M 54.5,35.5 C 53.5,36.8333 52.5,38.1667 51.5,39.5C 50.8333,40.5 50.1667,41.5 49.5,42.5C 44.7217,46.9401 39.3883,50.6068 33.5,53.5C 33.1667,53.5 32.8333,53.5 32.5,53.5C 31.209,53.7373 30.209,53.404 29.5,52.5C 31.3797,52.7709 32.713,52.1042 33.5,50.5C 37.7321,48.5998 41.3988,45.9331 44.5,42.5C 47.825,40.1695 51.1583,37.8361 54.5,35.5 Z"/></g>
<g><path style="opacity:0.976" fill="#e4f0e9" d="M 66.5,48.5 C 67.5,49.1667 68.5,49.8333 69.5,50.5C 69.427,52.0269 70.0937,53.0269 71.5,53.5C 71.5,54.1667 71.5,54.8333 71.5,55.5C 70.5,54.8333 69.5,54.1667 68.5,53.5C 67.8333,53.5 67.5,53.1667 67.5,52.5C 67.1667,51.1667 66.8333,49.8333 66.5,48.5 Z"/></g>
<g><path style="opacity:0.427" fill="#7abc98" d="M 75.5,13.5 C 75.8417,12.6618 76.5084,12.3284 77.5,12.5C 78.4622,28.4866 79.1289,44.4866 79.5,60.5C 79.1667,60.5 78.8333,60.5 78.5,60.5C 78.0779,44.6448 77.0779,28.9782 75.5,13.5 Z"/></g>
<g><path style="opacity:0.188" fill="#5aac80" d="M 63.5,49.5 C 63.8333,49.5 64.1667,49.5 64.5,49.5C 64.3284,50.4916 64.6618,51.1583 65.5,51.5C 66.038,53.1172 66.3713,54.7839 66.5,56.5C 65.8333,55.8333 65.1667,55.1667 64.5,54.5C 63.962,52.8828 63.6287,51.2161 63.5,49.5 Z"/></g>
<g><path style="opacity:0.576" fill="#81bf9d" d="M 64.5,49.5 C 64.5,49.1667 64.5,48.8333 64.5,48.5C 65.1667,48.5 65.8333,48.5 66.5,48.5C 66.8333,49.8333 67.1667,51.1667 67.5,52.5C 66.8333,52.1667 66.1667,51.8333 65.5,51.5C 65.6716,50.5084 65.3382,49.8417 64.5,49.5 Z"/></g>
<g><path style="opacity:0.804" fill="#83c09f" d="M 33.5,35.5 C 31.3198,37.8478 29.3198,40.3478 27.5,43C 28.3333,45.5 29.1667,48 30,50.5C 30.9862,51.1712 32.1529,51.1712 33.5,50.5C 32.713,52.1042 31.3797,52.7709 29.5,52.5C 28.3047,48.7139 27.638,48.7139 27.5,52.5C 26.7321,51.7375 26.2321,50.7375 26,49.5C 25.5892,54.5195 25.0892,59.5195 24.5,64.5C 23.0344,58.8548 23.3677,53.1882 25.5,47.5C 26.6869,48.8938 27.3535,48.7271 27.5,47C 25.7061,41.2721 27.7061,37.4388 33.5,35.5 Z"/></g>
<g><path style="opacity:0.537" fill="#85c1a2" d="M 69.5,50.5 C 70.9063,50.9731 71.573,51.9731 71.5,53.5C 70.0937,53.0269 69.427,52.0269 69.5,50.5 Z"/></g>
<g><path style="opacity:0.659" fill="#8dc5a6" d="M 94.5,33.5 C 97.35,37.5227 99.35,42.0227 100.5,47C 97.5489,50.9541 94.2156,54.6207 90.5,58C 92.0657,58.2997 93.399,57.7997 94.5,56.5C 93.578,58.8163 91.9113,60.483 89.5,61.5C 89.631,60.7611 89.4643,60.0944 89,59.5C 88.3292,60.2524 87.4959,60.5858 86.5,60.5C 90.6299,55.8688 94.9633,51.3688 99.5,47C 97.1273,42.7559 95.4607,38.2559 94.5,33.5 Z"/></g>
<g><path style="opacity:0.667" fill="#86c1a0" d="M 61.5,53.5 C 60.7101,54.7942 59.7101,55.9609 58.5,57C 60.0468,57.3334 61.3801,56.8334 62.5,55.5C 63.1067,55.6236 63.44,55.9569 63.5,56.5C 60.1486,58.8586 56.8153,61.1919 53.5,63.5C 54.6253,61.8712 55.9586,60.3712 57.5,59C 56.9056,58.5357 56.2389,58.369 55.5,58.5C 55.5,58.1667 55.5,57.8333 55.5,57.5C 57.2459,55.7484 59.2459,54.4151 61.5,53.5 Z"/></g>
<g><path style="opacity:0.537" fill="#8cc5a5" d="M 32.5,53.5 C 32.8333,53.5 33.1667,53.5 33.5,53.5C 37.3772,55.6853 41.3772,57.6853 45.5,59.5C 41.5152,58.5119 37.5152,57.5119 33.5,56.5C 32.8902,55.609 32.5569,54.609 32.5,53.5 Z"/></g>
<g><path style="opacity:0.129" fill="#74b993" d="M 68.5,53.5 C 69.5,54.1667 70.5,54.8333 71.5,55.5C 71.5,56.1667 71.5,56.8333 71.5,57.5C 69.7376,56.7377 68.7376,55.4044 68.5,53.5 Z"/></g>
<g><path style="opacity:0.725" fill="#83c09e" d="M 71.5,53.5 C 73.5869,54.5846 74.9202,56.2512 75.5,58.5C 74.1667,57.5 72.8333,56.5 71.5,55.5C 71.5,54.8333 71.5,54.1667 71.5,53.5 Z"/></g>
<g><path style="opacity:0.558" fill="#90c7a9" d="M 98.5,52.5 C 98.56,51.9569 98.8933,51.6236 99.5,51.5C 100.817,60.8608 100.65,70.1941 99,79.5C 97.4138,81.6705 96.0804,84.0038 95,86.5C 94.3292,87.2524 93.4959,87.5858 92.5,87.5C 94.5893,84.3226 96.4226,80.9892 98,77.5C 99.4744,69.0249 99.641,60.6916 98.5,52.5 Z"/></g>
<g><path style="opacity:0.475" fill="#7abc99" d="M 33.5,56.5 C 36.9572,58.3913 40.6239,60.058 44.5,61.5C 45.2975,61.9569 45.6309,62.6236 45.5,63.5C 41.5258,61.8485 37.5258,60.1818 33.5,58.5C 32.8933,58.6236 32.56,58.9569 32.5,59.5C 31.1148,58.0527 31.4482,57.0527 33.5,56.5 Z"/></g>
<g><path style="opacity:0.993" fill="#e2f0e8" d="M 64.5,25.5 C 64.5,26.1667 64.5,26.8333 64.5,27.5C 64.6716,28.4916 64.3382,29.1583 63.5,29.5C 61.7376,30.2623 60.7376,31.5956 60.5,33.5C 57.8333,35.1667 57.8333,36.8333 60.5,38.5C 60.7376,40.4044 61.7376,41.7377 63.5,42.5C 63.7376,44.4044 64.7376,45.7377 66.5,46.5C 66.5,47.1667 66.5,47.8333 66.5,48.5C 65.8333,48.5 65.1667,48.5 64.5,48.5C 63.8358,46.513 62.6692,44.8463 61,43.5C 60.992,45.8212 61.8253,47.8212 63.5,49.5C 63.6287,51.2161 63.962,52.8828 64.5,54.5C 64.6716,55.4916 64.3382,56.1583 63.5,56.5C 63.44,55.9569 63.1067,55.6236 62.5,55.5C 61.3801,56.8334 60.0468,57.3334 58.5,57C 59.7101,55.9609 60.7101,54.7942 61.5,53.5C 61.5,53.1667 61.5,52.8333 61.5,52.5C 61.2437,50.0628 60.5771,47.7294 59.5,45.5C 58.7435,44.2267 58.0768,44.2267 57.5,45.5C 55.5841,49.1629 54.5841,53.1629 54.5,57.5C 54.5,58.1667 54.8333,58.5 55.5,58.5C 56.2389,58.369 56.9056,58.5357 57.5,59C 55.9586,60.3712 54.6253,61.8712 53.5,63.5C 53.5,64.1667 53.5,64.8333 53.5,65.5C 53.6917,68.6008 54.3584,71.6008 55.5,74.5C 58.8326,75.5441 61.4993,74.5441 63.5,71.5C 64.8333,71.1667 66.1667,70.8333 67.5,70.5C 66.1667,71.8333 64.8333,73.1667 63.5,74.5C 61.9731,74.427 60.9731,75.0937 60.5,76.5C 56.9099,77.6284 53.5766,79.295 50.5,81.5C 49.537,81.0302 49.537,80.3635 50.5,79.5C 50.9731,78.0937 51.9731,77.427 53.5,77.5C 54.0431,77.44 54.3764,77.1067 54.5,76.5C 53.5123,73.5499 52.679,70.5499 52,67.5C 51.7996,65.6803 50.9663,64.347 49.5,63.5C 48.1667,63.5 46.8333,63.5 45.5,63.5C 45.6309,62.6236 45.2975,61.9569 44.5,61.5C 40.6239,60.058 36.9572,58.3913 33.5,56.5C 37.5152,57.5119 41.5152,58.5119 45.5,59.5C 46.791,59.2627 47.791,59.596 48.5,60.5C 49.209,61.404 50.209,61.7373 51.5,61.5C 53.2484,55.2546 54.5817,48.9213 55.5,42.5C 56.7879,40.9652 56.7879,39.2985 55.5,37.5C 54.3777,38.6302 53.0443,39.2969 51.5,39.5C 52.5,38.1667 53.5,36.8333 54.5,35.5C 56.8333,35.1667 58.1667,33.8333 58.5,31.5C 60.5,29.5 62.5,27.5 64.5,25.5 Z M 57.5,45.5 C 58.8333,47.8333 60.1667,50.1667 61.5,52.5C 61.5,52.8333 61.5,53.1667 61.5,53.5C 59.2459,54.4151 57.2459,55.7484 55.5,57.5C 56.4855,53.5568 57.1522,49.5568 57.5,45.5 Z"/></g>
<g><path style="opacity:0.294" fill="#64b187" d="M 57.5,45.5 C 58.0768,44.2267 58.7435,44.2267 59.5,45.5C 60.5771,47.7294 61.2437,50.0628 61.5,52.5C 60.1667,50.1667 58.8333,47.8333 57.5,45.5 Z"/></g>
<g><path style="opacity:0.361" fill="#72b892" d="M 57.5,45.5 C 57.1522,49.5568 56.4855,53.5568 55.5,57.5C 55.1667,57.5 54.8333,57.5 54.5,57.5C 54.5841,53.1629 55.5841,49.1629 57.5,45.5 Z"/></g>
<g><path style="opacity:0.369" fill="#66b288" d="M 71.5,57.5 C 73.984,59.8003 75.984,62.4669 77.5,65.5C 74.5293,63.5574 72.5293,60.8908 71.5,57.5 Z"/></g>
<g><path style="opacity:0.984" fill="#69b38a" d="M 75.5,58.5 C 76.5,59.1667 77.5,59.8333 78.5,60.5C 78.5,61.1667 78.8333,61.5 79.5,61.5C 79.631,62.2389 79.4643,62.9056 79,63.5C 77.1978,62.2107 76.0312,60.5441 75.5,58.5 Z"/></g>
<g><path style="opacity:0.031" fill="#6ab48c" d="M 82.5,52.5 C 82.1588,56.1595 82.8255,59.4928 84.5,62.5C 84.0269,63.9063 83.0269,64.573 81.5,64.5C 81.1832,60.2984 81.5166,56.2984 82.5,52.5 Z"/></g>
<g><path style="opacity:0.988" fill="#b7dac5" d="M 89.5,61.5 C 87.8333,63.8333 85.8333,65.8333 83.5,67.5C 83.1667,67.5 82.8333,67.5 82.5,67.5C 82.4431,66.391 82.1098,65.391 81.5,64.5C 83.0269,64.573 84.0269,63.9063 84.5,62.5C 84.8333,61.5 85.5,60.8333 86.5,60.5C 87.4959,60.5858 88.3292,60.2524 89,59.5C 89.4643,60.0944 89.631,60.7611 89.5,61.5 Z"/></g>
<g><path style="opacity:0.808" fill="#8bc4a5" d="M 32.5,59.5 C 34.2671,61.7916 35.2671,64.4582 35.5,67.5C 33.4152,65.3155 32.4152,62.6489 32.5,59.5 Z"/></g>
<g><path style="opacity:0.957" fill="#bdddcb" d="M 64.5,54.5 C 65.1667,55.1667 65.8333,55.8333 66.5,56.5C 68.4414,60.7181 70.1081,65.0515 71.5,69.5C 70.2719,68.6935 69.2719,67.6935 68.5,66.5C 67.5,65.1667 66.5,63.8333 65.5,62.5C 64.2616,60.7857 63.595,58.7857 63.5,56.5C 64.3382,56.1583 64.6716,55.4916 64.5,54.5 Z"/></g>
<g><path style="opacity:0.02" fill="#86c2a2" d="M 65.5,62.5 C 66.5,63.8333 67.5,65.1667 68.5,66.5C 68.5674,67.9587 68.2341,69.2921 67.5,70.5C 66.1667,70.8333 64.8333,71.1667 63.5,71.5C 64.5736,70.1154 65.9069,68.9487 67.5,68C 66.1387,66.4157 65.472,64.5824 65.5,62.5 Z"/></g>
<g><path style="opacity:0.733" fill="#8bc4a5" d="M 77.5,65.5 C 79.2252,65.8425 79.7252,66.8425 79,68.5C 77.5,70 76,71.5 74.5,73C 73.5632,73.6917 72.8966,73.525 72.5,72.5C 74.6298,70.8729 76.6298,69.0396 78.5,67C 77.944,66.6174 77.6107,66.1174 77.5,65.5 Z"/></g>
<g><path style="opacity:0.122" fill="#69b48c" d="M 28.5,55.5 C 32.4364,65.1321 36.1031,74.9654 39.5,85C 36.4935,93.8753 32.8268,102.375 28.5,110.5C 31.4322,102.043 34.7655,93.7098 38.5,85.5C 34.5499,75.6496 31.2165,65.6496 28.5,55.5 Z"/></g>
<g><path style="opacity:0.455" fill="#67b38a" d="M 49.5,63.5 C 50.9663,64.347 51.7996,65.6803 52,67.5C 52.679,70.5499 53.5123,73.5499 54.5,76.5C 54.3764,77.1067 54.0431,77.44 53.5,77.5C 51.8592,72.9393 50.5259,68.2727 49.5,63.5 Z"/></g>
<g><path style="opacity:0.165" fill="#81bf9d" d="M 67.5,70.5 C 69.8445,70.979 71.1778,72.479 71.5,75C 70.0145,77.6517 68.0145,79.8184 65.5,81.5C 65.1667,81.5 64.8333,81.5 64.5,81.5C 66.5639,79.4384 68.2305,77.105 69.5,74.5C 69.1667,73.8333 68.8333,73.1667 68.5,72.5C 66.9246,73.4565 65.258,74.1231 63.5,74.5C 64.8333,73.1667 66.1667,71.8333 67.5,70.5 Z"/></g>
<g><path style="opacity:0.702" fill="#88c2a2" d="M 35.5,67.5 C 37.2671,69.7916 38.2671,72.4582 38.5,75.5C 36.4152,73.3155 35.4152,70.6489 35.5,67.5 Z"/></g>
<g><path style="opacity:0.322" fill="#88c3a3" d="M 53.5,65.5 C 54.8122,68.4083 56.1455,71.4083 57.5,74.5C 59.2433,72.9617 61.2433,71.9617 63.5,71.5C 61.4993,74.5441 58.8326,75.5441 55.5,74.5C 54.3584,71.6008 53.6917,68.6008 53.5,65.5 Z"/></g>
<g><path style="opacity:0.241" fill="#82bf9e" d="M 78.5,71.5 C 77.5186,73.4893 76.5186,75.4893 75.5,77.5C 77.129,81.0851 78.4623,84.7518 79.5,88.5C 77.0032,84.8399 75.0032,80.8399 73.5,76.5C 74.8545,74.4788 76.5212,72.8121 78.5,71.5 Z"/></g>
<g><path style="opacity:0.055" fill="#64b188" d="M 63.5,74.5 C 63.0269,75.9063 62.0269,76.573 60.5,76.5C 60.9731,75.0937 61.9731,74.427 63.5,74.5 Z"/></g>
<g><path style="opacity:0.129" fill="#55aa7c" d="M 38.5,75.5 C 40.2671,77.7916 41.2671,80.4582 41.5,83.5C 39.7329,81.2084 38.7329,78.5418 38.5,75.5 Z"/></g>
<g><path style="opacity:0.012" fill="#7abc98" d="M 76.5,88.5 C 74.5033,85.8402 73.0033,82.8402 72,79.5C 70.871,81.1412 69.371,82.1412 67.5,82.5C 68.7927,80.7041 70.2927,79.0375 72,77.5C 74.0539,80.9409 75.5539,84.6076 76.5,88.5 Z"/></g>
<g><path style="opacity:0.027" fill="#67b28a" d="M 82.5,67.5 C 82.8333,67.5 83.1667,67.5 83.5,67.5C 83.7509,72.5068 84.0843,77.5068 84.5,82.5C 82.5583,77.9443 81.8917,72.9443 82.5,67.5 Z"/></g>
<g><path style="opacity:0.984" fill="#a8d2bb" d="M 60.5,76.5 C 57.1651,79.8389 53.1651,82.1722 48.5,83.5C 46.9731,83.427 45.9731,84.0937 45.5,85.5C 44.7095,86.4013 43.7095,87.0679 42.5,87.5C 42.5674,86.0413 42.2341,84.7079 41.5,83.5C 44.3777,81.8946 47.3777,80.5612 50.5,79.5C 49.537,80.3635 49.537,81.0302 50.5,81.5C 53.5766,79.295 56.9099,77.6284 60.5,76.5 Z"/></g>
<g><path style="opacity:0.008" fill="#59aa7d" d="M 48.5,83.5 C 48.0269,84.9063 47.0269,85.573 45.5,85.5C 45.9731,84.0937 46.9731,83.427 48.5,83.5 Z"/></g>
<g><path style="opacity:0.306" fill="#64b288" d="M 24.5,71.5 C 23.6368,82.1564 23.4701,92.823 24,103.5C 24.7862,106.758 26.2862,109.424 28.5,111.5C 27.791,112.404 26.791,112.737 25.5,112.5C 25.2447,109.984 24.4114,107.65 23,105.5C 22.3333,95.5 22.3333,85.5 23,75.5C 23.21,73.9419 23.71,72.6085 24.5,71.5 Z"/></g>
<g><path style="opacity:0.057" fill="#65b188" d="M 80.5,80.5 C 81.4767,83.2869 81.81,86.2869 81.5,89.5C 80.1667,89.8333 80.1667,90.1667 81.5,90.5C 81.631,91.2389 81.4643,91.9056 81,92.5C 79.8118,91.4366 79.3118,90.1033 79.5,88.5C 80.4731,86.0521 80.8064,83.3854 80.5,80.5 Z"/></g>
<g><path style="opacity:0.188" fill="#72b892" d="M 76.5,88.5 C 78.3299,90.8263 79.6633,93.493 80.5,96.5C 80.0431,97.2975 79.3764,97.6309 78.5,97.5C 77.8333,94.5 77.1667,91.5 76.5,88.5 Z"/></g>
<g><path style="opacity:0.91" fill="#a8d2ba" d="M 64.5,81.5 C 64.8333,81.5 65.1667,81.5 65.5,81.5C 65.8417,82.3382 66.5084,82.6716 67.5,82.5C 63.1667,87.5 58.5,92.1667 53.5,96.5C 53.5,95.1667 52.8333,94.5 51.5,94.5C 55.5271,89.8062 59.8604,85.4729 64.5,81.5 Z"/></g>
<g><path style="opacity:0.71" fill="#7cbc99" d="M 84.5,87.5 C 84.3379,89.5273 84.5045,91.5273 85,93.5C 87.6633,91.6664 90.1633,89.6664 92.5,87.5C 90.975,91.688 87.975,94.0213 83.5,94.5C 83.1984,91.9407 83.5318,89.6074 84.5,87.5 Z"/></g>
<g><path style="opacity:1" fill="#d9ebe1" d="M 51.5,94.5 C 52.8333,94.5 53.5,95.1667 53.5,96.5C 52.1667,96.5 51.5,97.1667 51.5,98.5C 49.9826,98.5106 48.8159,99.1772 48,100.5C 47.5304,99.4232 47.6971,98.4232 48.5,97.5C 49.1667,96.1667 50.1667,95.1667 51.5,94.5 Z"/></g>
<g><path style="opacity:0.016" fill="#74b993" d="M 41.5,87.5 C 40.5975,91.8892 38.9308,95.8892 36.5,99.5C 37.0873,94.9991 38.7539,90.9991 41.5,87.5 Z"/></g>
<g><path style="opacity:0.043" fill="#50a677" d="M 53.5,96.5 C 53.1667,97.5 52.5,98.1667 51.5,98.5C 51.5,97.1667 52.1667,96.5 53.5,96.5 Z"/></g>
<g><path style="opacity:0.043" fill="#7ebe9c" d="M 103.5,45.5 C 103.833,45.5 104.167,45.5 104.5,45.5C 104.667,56.505 104.5,67.505 104,78.5C 99.4332,91.9004 90.2665,100.234 76.5,103.5C 81.9351,100.611 87.2685,97.4447 92.5,94C 96.5277,90.1133 99.6943,85.6133 102,80.5C 103.436,68.9097 103.936,57.243 103.5,45.5 Z"/></g>
<g><path style="opacity:0.341" fill="#73b893" d="M 36.5,99.5 C 36.3404,101.153 35.6737,102.486 34.5,103.5C 34.2291,101.62 34.8958,100.287 36.5,99.5 Z"/></g>
<g><path style="opacity:0.004" fill="#95c9ad" d="M 48.5,97.5 C 47.6971,98.4232 47.5304,99.4232 48,100.5C 48.8159,99.1772 49.9826,98.5106 51.5,98.5C 50.0892,100.914 48.0892,102.581 45.5,103.5C 46.625,102.348 46.625,101.348 45.5,100.5C 45.8564,98.8102 46.8564,97.8102 48.5,97.5 Z"/></g>
<g><path style="opacity:0.4" fill="#76ba96" d="M 71.5,100.5 C 69.7504,102.398 67.5837,103.731 65,104.5C 64.6012,104.272 64.4346,103.938 64.5,103.5C 66.4261,101.707 68.7594,100.707 71.5,100.5 Z"/></g>
<g><path style="opacity:0.302" fill="#6ab48d" d="M 34.5,103.5 C 34.5979,105.553 33.9313,107.22 32.5,108.5C 32.4021,106.447 33.0687,104.78 34.5,103.5 Z"/></g>
<g><path style="opacity:0.851" fill="#bfdecd" d="M 45.5,100.5 C 46.625,101.348 46.625,102.348 45.5,103.5C 42.0648,107.438 38.3981,111.271 34.5,115C 36.1341,115.494 37.8008,115.66 39.5,115.5C 37.7354,116.461 35.7354,116.795 33.5,116.5C 33.5,115.5 33.5,114.5 33.5,113.5C 37.5,109.167 41.5,104.833 45.5,100.5 Z"/></g>
<g><path style="opacity:0.165" fill="#7dbe9c" d="M 61.5,104.5 C 60.015,107.083 57.6817,108.416 54.5,108.5C 56.6351,106.929 58.9684,105.596 61.5,104.5 Z"/></g>
<g><path style="opacity:0.416" fill="#7dbd9a" d="M 70.5,106.5 C 68.8185,108.008 66.8185,109.008 64.5,109.5C 65.911,107.461 67.911,106.461 70.5,106.5 Z"/></g>
<g><path style="opacity:0.471" fill="#87c2a2" d="M 18.5,78.5 C 19.3299,87.6577 19.8299,96.991 20,106.5C 21.8808,110.307 23.0474,114.307 23.5,118.5C 21.2043,114.131 19.3709,109.464 18,104.5C 17.3677,95.8144 17.5344,87.1477 18.5,78.5 Z"/></g>
<g><path style="opacity:0.363" fill="#80bf9e" d="M 52.5,109.5 C 49.9122,111.625 46.9122,112.958 43.5,113.5C 46.0878,111.375 49.0878,110.042 52.5,109.5 Z"/></g>
<g><path style="opacity:0.761" fill="#8dc5a6" d="M 45.5,100.5 C 41.5,104.833 37.5,109.167 33.5,113.5C 32.2794,114.028 31.1127,114.695 30,115.5C 29.7613,114.212 30.2613,113.212 31.5,112.5C 35.8918,108.103 40.5584,104.103 45.5,100.5 Z"/></g>
<g><path style="opacity:0.294" fill="#78bb97" d="M 61.5,110.5 C 59.3649,112.071 57.0316,113.404 54.5,114.5C 55.985,111.917 58.3183,110.584 61.5,110.5 Z"/></g>
<g><path style="opacity:0.483" fill="#7dbe9b" d="M 53.5,114.5 C 44.0017,120.744 34.0017,122.077 23.5,118.5C 29.418,119.621 35.418,119.788 41.5,119C 45.2186,116.636 49.2186,115.136 53.5,114.5 Z"/></g>
</svg>
