<?xml version="1.0" encoding="UTF-8"?>
<!DOCTYPE svg PUBLIC "-//W3C//DTD SVG 1.1//EN" "http://www.w3.org/Graphics/SVG/1.1/DTD/svg11.dtd">
<svg xmlns="http://www.w3.org/2000/svg" version="1.1" width="425px" height="201px" style="shape-rendering:geometricPrecision; text-rendering:geometricPrecision; image-rendering:optimizeQuality; fill-rule:evenodd; clip-rule:evenodd" xmlns:xlink="http://www.w3.org/1999/xlink">
<g><path style="opacity:1" fill="#edf6f1" d="M 405.5,7.5 C 405.738,9.40435 406.738,10.7377 408.5,11.5C 408.427,13.0269 409.094,14.0269 410.5,14.5C 411.674,15.5137 412.34,16.847 412.5,18.5C 412.992,20.8185 413.992,22.8185 415.5,24.5C 417.772,30.0493 419.772,35.716 421.5,41.5C 421.936,53.243 421.436,64.9097 420,76.5C 417.694,81.6133 414.528,86.1133 410.5,90C 405.268,93.4447 399.935,96.6114 394.5,99.5C 392.819,101.008 390.819,102.008 388.5,102.5C 385.911,102.461 383.911,103.461 382.5,105.5C 381.609,106.11 380.609,106.443 379.5,106.5C 376.318,106.584 373.985,107.917 372.5,110.5C 372.167,110.5 371.833,110.5 371.5,110.5C 367.219,111.136 363.219,112.636 359.5,115C 353.418,115.788 347.418,115.621 341.5,114.5C 341.047,110.307 339.881,106.307 338,102.5C 337.83,92.991 337.33,83.6577 336.5,74.5C 336.287,67.7895 336.62,61.1228 337.5,54.5C 338.364,48.6083 339.364,42.6083 340.5,36.5C 341.906,36.0269 342.573,35.0269 342.5,33.5C 343.833,32.8333 344.833,31.8333 345.5,30.5C 347.749,29.9202 349.415,28.5869 350.5,26.5C 354.192,24.6563 357.525,22.3229 360.5,19.5C 360.973,18.0937 361.973,17.427 363.5,17.5C 365.404,17.2624 366.738,16.2624 367.5,14.5C 369.027,14.573 370.027,13.9063 370.5,12.5C 376.005,9.18905 381.672,6.02238 387.5,3C 394.397,1.32541 400.397,2.82541 405.5,7.5 Z M 390.5,7.5 C 389.89,8.39105 389.557,9.39105 389.5,10.5C 387.738,11.2623 386.738,12.5956 386.5,14.5C 384.937,15.9448 383.604,17.6115 382.5,19.5C 379.529,21.4426 377.529,24.1092 376.5,27.5C 374.833,28.5 373.5,29.8333 372.5,31.5C 369.158,33.8361 365.825,36.1695 362.5,38.5C 358.268,40.4002 354.601,43.0669 351.5,46.5C 350.153,47.1712 348.986,47.1712 348,46.5C 347.167,44 346.333,41.5 345.5,39C 347.32,36.3478 349.32,33.8478 351.5,31.5C 353.404,31.2624 354.738,30.2624 355.5,28.5C 357.027,28.573 358.027,27.9063 358.5,26.5C 361.672,24.7481 364.672,22.7481 367.5,20.5C 371.732,18.5998 375.399,15.9331 378.5,12.5C 380.027,12.573 381.027,11.9063 381.5,10.5C 384.406,9.21336 387.406,8.21336 390.5,7.5 Z M 398.5,8.5 C 400.167,9.83333 401.833,11.1667 403.5,12.5C 406.106,18.4219 409.106,24.0885 412.5,29.5C 413.461,34.2559 415.127,38.7559 417.5,43C 412.963,47.3688 408.63,51.8688 404.5,56.5C 403.5,56.8333 402.833,57.5 402.5,58.5C 400.825,55.4928 400.159,52.1595 400.5,48.5C 400.5,47.1667 400.5,45.8333 400.5,44.5C 400.296,41.4824 399.963,38.4824 399.5,35.5C 399.5,33.8333 399.5,32.1667 399.5,30.5C 399.296,27.4824 398.963,24.4824 398.5,21.5C 398.5,20.8333 398.5,20.1667 398.5,19.5C 398.5,15.8333 398.5,12.1667 398.5,8.5 Z M 393.5,9.5 C 395.078,24.9782 396.078,40.6448 396.5,56.5C 395.5,55.8333 394.5,55.1667 393.5,54.5C 392.92,52.2512 391.587,50.5846 389.5,49.5C 389.573,47.9731 388.906,46.9731 387.5,46.5C 387.262,44.5956 386.262,43.2623 384.5,42.5C 384.262,40.5956 383.262,39.2623 381.5,38.5C 381.262,36.5956 380.262,35.2623 378.5,34.5C 377.167,32.8333 377.167,31.1667 378.5,29.5C 380.262,28.7377 381.262,27.4044 381.5,25.5C 382.338,25.1583 382.672,24.4916 382.5,23.5C 383.167,23.5 383.5,23.1667 383.5,22.5C 385.914,21.0892 387.581,19.0892 388.5,16.5C 389.906,16.0269 390.573,15.0269 390.5,13.5C 391.167,13.5 391.5,13.1667 391.5,12.5C 392.906,12.0269 393.573,11.0269 393.5,9.5 Z M 373.5,38.5 C 371.546,43.6212 369.879,48.9545 368.5,54.5C 368.253,55.7133 367.586,56.38 366.5,56.5C 365.791,55.596 364.791,55.2627 363.5,55.5C 359.377,53.6853 355.377,51.6853 351.5,49.5C 357.388,46.6068 362.722,42.9401 367.5,38.5C 369.426,37.7577 371.259,36.7577 373,35.5C 373.483,36.448 373.649,37.448 373.5,38.5 Z M 345.5,48.5 C 345.263,49.791 345.596,50.791 346.5,51.5C 349.217,61.6496 352.55,71.6496 356.5,81.5C 352.766,89.7098 349.432,98.0431 346.5,106.5C 346.5,106.833 346.5,107.167 346.5,107.5C 344.286,105.424 342.786,102.758 342,99.5C 341.47,88.823 341.637,78.1564 342.5,67.5C 342.5,65.1667 342.5,62.8333 342.5,60.5C 343.089,55.5195 343.589,50.5195 344,45.5C 344.232,46.7375 344.732,47.7375 345.5,48.5 Z M 383.5,47.5 C 384.167,47.8333 384.833,48.1667 385.5,48.5C 385.5,49.1667 385.833,49.5 386.5,49.5C 386.738,51.4044 387.738,52.7377 389.5,53.5C 390.529,56.8908 392.529,59.5574 395.5,61.5C 395.611,62.1174 395.944,62.6174 396.5,63C 394.63,65.0396 392.63,66.8729 390.5,68.5C 390.737,67.209 390.404,66.209 389.5,65.5C 388.108,61.0515 386.441,56.7181 384.5,52.5C 384.371,50.7839 384.038,49.1172 383.5,47.5 Z M 416.5,48.5 C 417.641,56.6916 417.474,65.0249 416,73.5C 414.423,76.9892 412.589,80.3226 410.5,83.5C 408.163,85.6664 405.663,87.6664 403,89.5C 402.505,87.5273 402.338,85.5273 402.5,83.5C 402.5,81.8333 402.5,80.1667 402.5,78.5C 402.084,73.5068 401.751,68.5068 401.5,63.5C 403.833,61.8333 405.833,59.8333 407.5,57.5C 409.911,56.483 411.578,54.8163 412.5,52.5C 414.167,51.5 415.5,50.1667 416.5,48.5 Z M 381.5,52.5 C 381.595,54.7857 382.262,56.7857 383.5,58.5C 383.472,60.5824 384.139,62.4157 385.5,64C 383.907,64.9487 382.574,66.1154 381.5,67.5C 379.243,67.9617 377.243,68.9617 375.5,70.5C 374.145,67.4083 372.812,64.4083 371.5,61.5C 371.5,60.8333 371.5,60.1667 371.5,59.5C 374.815,57.1919 378.149,54.8586 381.5,52.5 Z M 350.5,55.5 C 350.56,54.9569 350.893,54.6236 351.5,54.5C 355.526,56.1818 359.526,57.8485 363.5,59.5C 364.833,59.5 366.167,59.5 367.5,59.5C 368.526,64.2727 369.859,68.9393 371.5,73.5C 369.973,73.427 368.973,74.0937 368.5,75.5C 365.378,76.5612 362.378,77.8946 359.5,79.5C 359.267,76.4582 358.267,73.7916 356.5,71.5C 356.267,68.4582 355.267,65.7916 353.5,63.5C 353.267,60.4582 352.267,57.7916 350.5,55.5 Z M 375.5,41.5 C 376.833,43.8333 378.167,46.1667 379.5,48.5C 379.5,48.8333 379.5,49.1667 379.5,49.5C 377.246,50.4151 375.246,51.7484 373.5,53.5C 374.486,49.5568 375.152,45.5568 375.5,41.5 Z M 396.5,67.5 C 397.239,67.369 397.906,67.5357 398.5,68C 398.173,70.6849 398.173,73.5182 398.5,76.5C 398.806,79.3854 398.473,82.0521 397.5,84.5C 396.462,80.7518 395.129,77.0851 393.5,73.5C 394.519,71.4893 395.519,69.4893 396.5,67.5 Z M 382.5,77.5 C 377.86,81.4729 373.527,85.8062 369.5,90.5C 368.167,91.1667 367.167,92.1667 366.5,93.5C 364.856,93.8102 363.856,94.8102 363.5,96.5C 358.558,100.103 353.892,104.103 349.5,108.5C 349.833,107.167 350.167,105.833 350.5,104.5C 351.931,103.22 352.598,101.553 352.5,99.5C 353.674,98.4863 354.34,97.153 354.5,95.5C 356.931,91.8892 358.597,87.8892 359.5,83.5C 359.833,83.5 360.167,83.5 360.5,83.5C 361.71,83.0679 362.71,82.4013 363.5,81.5C 365.027,81.573 366.027,80.9063 366.5,79.5C 371.165,78.1722 375.165,75.8389 378.5,72.5C 380.027,72.573 381.027,71.9063 381.5,70.5C 383.258,70.1231 384.925,69.4565 386.5,68.5C 386.833,69.1667 387.167,69.8333 387.5,70.5C 386.231,73.105 384.564,75.4384 382.5,77.5 Z M 394.5,84.5 C 395.167,87.5 395.833,90.5 396.5,93.5C 394.046,94.2271 391.713,95.2271 389.5,96.5C 386.759,96.7073 384.426,97.7073 382.5,99.5C 381.391,99.5569 380.391,99.8902 379.5,100.5C 376.968,101.596 374.635,102.929 372.5,104.5C 371.508,104.328 370.842,104.662 370.5,105.5C 367.088,106.042 364.088,107.375 361.5,109.5C 359.847,109.66 358.514,110.326 357.5,111.5C 355.801,111.66 354.134,111.494 352.5,111C 356.398,107.271 360.065,103.438 363.5,99.5C 366.089,98.5806 368.089,96.914 369.5,94.5C 370.5,94.1667 371.167,93.5 371.5,92.5C 376.5,88.1667 381.167,83.5 385.5,78.5C 387.371,78.1412 388.871,77.1412 390,75.5C 391.003,78.8402 392.503,81.8402 394.5,84.5 Z"/></g>
<g><path style="opacity:0.745" fill="#8ec6a8" d="M 405.5,7.5 C 400.397,2.82541 394.397,1.32541 387.5,3C 381.672,6.02238 376.005,9.18905 370.5,12.5C 378.005,4.27455 387.339,0.441215 398.5,1C 401.786,2.28168 404.12,4.44835 405.5,7.5 Z"/></g>
<g><path style="opacity:0.431" fill="#86c1a1" d="M 392.5,5.5 C 392.727,7.93275 391.727,9.59942 389.5,10.5C 389.557,9.39105 389.89,8.39105 390.5,7.5C 387.406,8.21336 384.406,9.21336 381.5,10.5C 384.497,7.50352 388.164,5.83686 392.5,5.5 Z"/></g>
<g><path style="opacity:0.58" fill="#7dbd9a" d="M 398.5,8.5 C 398.5,8.16667 398.5,7.83333 398.5,7.5C 401.167,8.16667 402.833,9.83333 403.5,12.5C 401.833,11.1667 400.167,9.83333 398.5,8.5 Z"/></g>
<g><path style="opacity:0.792" fill="#93c8ab" d="M 405.5,7.5 C 407.262,8.26231 408.262,9.59565 408.5,11.5C 406.738,10.7377 405.738,9.40435 405.5,7.5 Z"/></g>
<g><path style="opacity:0.031" fill="#68b38b" d="M 393.5,9.5 C 393.573,11.0269 392.906,12.0269 391.5,12.5C 391.427,10.9731 392.094,9.97306 393.5,9.5 Z"/></g>
<g><path style="opacity:0.055" fill="#61af85" d="M 381.5,10.5 C 381.027,11.9063 380.027,12.573 378.5,12.5C 378.973,11.0937 379.973,10.427 381.5,10.5 Z"/></g>
<g><path style="opacity:0.545" fill="#81bf9c" d="M 389.5,10.5 C 389.262,12.4044 388.262,13.7377 386.5,14.5C 386.738,12.5956 387.738,11.2623 389.5,10.5 Z"/></g>
<g><path style="opacity:0.784" fill="#95c9ac" d="M 370.5,12.5 C 370.027,13.9063 369.027,14.573 367.5,14.5C 367.973,13.0937 368.973,12.427 370.5,12.5 Z"/></g>
<g><path style="opacity:0.975" fill="#d0e7da" d="M 392.5,5.5 C 393.5,6.5 394.5,7.5 395.5,8.5C 394.508,8.32842 393.842,8.66175 393.5,9.5C 392.094,9.97306 391.427,10.9731 391.5,12.5C 391.5,13.1667 391.167,13.5 390.5,13.5C 389.094,13.9731 388.427,14.9731 388.5,16.5C 385.983,17.8927 384.316,19.8927 383.5,22.5C 383.5,23.1667 383.167,23.5 382.5,23.5C 382.5,22.8333 382.5,22.1667 382.5,21.5C 382.5,20.8333 382.5,20.1667 382.5,19.5C 383.604,17.6115 384.937,15.9448 386.5,14.5C 388.262,13.7377 389.262,12.4044 389.5,10.5C 391.727,9.59942 392.727,7.93275 392.5,5.5 Z"/></g>
<g><path style="opacity:0.314" fill="#63b087" d="M 408.5,11.5 C 409.906,11.9731 410.573,12.9731 410.5,14.5C 409.094,14.0269 408.427,13.0269 408.5,11.5 Z"/></g>
<g><path style="opacity:0.024" fill="#6bb58d" d="M 390.5,13.5 C 390.573,15.0269 389.906,16.0269 388.5,16.5C 388.427,14.9731 389.094,13.9731 390.5,13.5 Z"/></g>
<g><path style="opacity:0.722" fill="#96c9ad" d="M 367.5,14.5 C 366.738,16.2624 365.404,17.2624 363.5,17.5C 364.262,15.7376 365.596,14.7376 367.5,14.5 Z"/></g>
<g><path style="opacity:0.02" fill="#7cbd9a" d="M 378.5,12.5 C 375.399,15.9331 371.732,18.5998 367.5,20.5C 370.601,17.0669 374.268,14.4002 378.5,12.5 Z"/></g>
<g><path style="opacity:0.176" fill="#90c7a9" d="M 398.5,7.5 C 397.167,7.83333 397.167,8.16667 398.5,8.5C 398.5,12.1667 398.5,15.8333 398.5,19.5C 396.395,15.4302 396.062,11.0969 397.5,6.5C 398.107,6.62358 398.44,6.95691 398.5,7.5 Z"/></g>
<g><path style="opacity:0.243" fill="#7ebe9c" d="M 360.5,19.5 C 357.525,22.3229 354.192,24.6563 350.5,26.5C 353.172,23.1688 356.505,20.8355 360.5,19.5 Z"/></g>
<g><path style="opacity:0.635" fill="#78bb96" d="M 382.5,19.5 C 382.5,20.1667 382.5,20.8333 382.5,21.5C 380.5,23.5 378.5,25.5 376.5,27.5C 377.529,24.1092 379.529,21.4426 382.5,19.5 Z"/></g>
<g><path style="opacity:0.812" fill="#8dc5a6" d="M 388.5,16.5 C 387.581,19.0892 385.914,21.0892 383.5,22.5C 384.316,19.8927 385.983,17.8927 388.5,16.5 Z"/></g>
<g><path style="opacity:0.137" fill="#4ea676" d="M 412.5,18.5 C 414.539,19.911 415.539,21.911 415.5,24.5C 413.992,22.8185 412.992,20.8185 412.5,18.5 Z"/></g>
<g><path style="opacity:0.388" fill="#70b790" d="M 403.5,12.5 C 407.745,17.437 410.745,23.1037 412.5,29.5C 409.106,24.0885 406.106,18.4219 403.5,12.5 Z"/></g>
<g><path style="opacity:0.024" fill="#5eae83" d="M 358.5,26.5 C 358.027,27.9063 357.027,28.573 355.5,28.5C 355.973,27.0937 356.973,26.427 358.5,26.5 Z"/></g>
<g><path style="opacity:0.012" fill="#66b28a" d="M 381.5,25.5 C 381.262,27.4044 380.262,28.7377 378.5,29.5C 378.738,27.5956 379.738,26.2623 381.5,25.5 Z"/></g>
<g><path style="opacity:0.694" fill="#88c3a3" d="M 398.5,21.5 C 398.963,24.4824 399.296,27.4824 399.5,30.5C 398.235,29.4855 397.569,27.9855 397.5,26C 397.508,24.2933 397.842,22.7933 398.5,21.5 Z"/></g>
<g><path style="opacity:0.914" fill="#9fcfb5" d="M 350.5,26.5 C 349.415,28.5869 347.749,29.9202 345.5,30.5C 346.585,28.4131 348.251,27.0798 350.5,26.5 Z"/></g>
<g><path style="opacity:0.592" fill="#82bf9d" d="M 376.5,27.5 C 376.167,29.8333 374.833,31.1667 372.5,31.5C 373.5,29.8333 374.833,28.5 376.5,27.5 Z"/></g>
<g><path style="opacity:0.035" fill="#82c09f" d="M 355.5,28.5 C 354.738,30.2624 353.404,31.2624 351.5,31.5C 352.262,29.7376 353.596,28.7376 355.5,28.5 Z"/></g>
<g><path style="opacity:0.129" fill="#6db68f" d="M 378.5,29.5 C 377.167,31.1667 377.167,32.8333 378.5,34.5C 375.833,32.8333 375.833,31.1667 378.5,29.5 Z"/></g>
<g><path style="opacity:0.569" fill="#7abc99" d="M 345.5,30.5 C 344.833,31.8333 343.833,32.8333 342.5,33.5C 342.5,31.5 343.5,30.5 345.5,30.5 Z"/></g>
<g><path style="opacity:0.047" fill="#80bf9d" d="M 373.5,38.5 C 373.649,37.448 373.483,36.448 373,35.5C 371.259,36.7577 369.426,37.7577 367.5,38.5C 368.167,37.5 368.833,36.5 369.5,35.5C 371.044,35.2969 372.378,34.6302 373.5,33.5C 374.788,35.2985 374.788,36.9652 373.5,38.5 Z"/></g>
<g><path style="opacity:0.498" fill="#8dc5a7" d="M 342.5,33.5 C 342.573,35.0269 341.906,36.0269 340.5,36.5C 340.427,34.9731 341.094,33.9731 342.5,33.5 Z"/></g>
<g><path style="opacity:0.561" fill="#6ab48c" d="M 378.5,34.5 C 380.262,35.2623 381.262,36.5956 381.5,38.5C 379.738,37.7377 378.738,36.4044 378.5,34.5 Z"/></g>
<g><path style="opacity:0.231" fill="#60b086" d="M 399.5,35.5 C 399.963,38.4824 400.296,41.4824 400.5,44.5C 399.833,43.5 399.167,42.5 398.5,41.5C 398.205,39.2646 398.539,37.2646 399.5,35.5 Z"/></g>
<g><path style="opacity:0.118" fill="#55aa7c" d="M 415.5,24.5 C 419.18,29.5382 421.514,35.2049 422.5,41.5C 422.167,41.5 421.833,41.5 421.5,41.5C 419.772,35.716 417.772,30.0493 415.5,24.5 Z"/></g>
<g><path style="opacity:0.21" fill="#75b994" d="M 362.5,38.5 C 359.399,41.9331 355.732,44.5998 351.5,46.5C 354.601,43.0669 358.268,40.4002 362.5,38.5 Z"/></g>
<g><path style="opacity:0.776" fill="#83c1a0" d="M 340.5,36.5 C 339.364,42.6083 338.364,48.6083 337.5,54.5C 336.95,48.1082 337.95,42.1082 340.5,36.5 Z"/></g>
<g><path style="opacity:0.133" fill="#72b892" d="M 373.5,38.5 C 372.582,44.9213 371.248,51.2546 369.5,57.5C 368.209,57.7373 367.209,57.404 366.5,56.5C 367.586,56.38 368.253,55.7133 368.5,54.5C 369.879,48.9545 371.546,43.6212 373.5,38.5 Z"/></g>
<g><path style="opacity:0.455" fill="#72b893" d="M 381.5,38.5 C 383.262,39.2623 384.262,40.5956 384.5,42.5C 382.738,41.7377 381.738,40.4044 381.5,38.5 Z"/></g>
<g><path style="opacity:0.886" fill="#fefffe" d="M 112.5,43.5 C 117.43,43.1975 122.263,43.5308 127,44.5C 127.5,67.831 127.667,91.1643 127.5,114.5C 122.821,114.666 118.155,114.499 113.5,114C 112.874,113.25 112.374,112.416 112,111.5C 110.055,112.863 107.888,113.697 105.5,114C 77.3555,117.856 65.1889,105.689 69,77.5C 71.842,67.9913 78.0087,61.8246 87.5,59C 95.8267,58.5003 104.16,58.3336 112.5,58.5C 112.5,53.5 112.5,48.5 112.5,43.5 Z M 91.5,72.5 C 98.5,72.5 105.5,72.5 112.5,72.5C 112.925,79.6154 112.425,86.6154 111,93.5C 103.968,100.901 95.8012,102.401 86.5,98C 81.1667,90.3333 81.1667,82.6667 86.5,75C 88.3146,74.2432 89.9812,73.4098 91.5,72.5 Z"/></g>
<g><path style="opacity:0.067" fill="#59ab7e" d="M 382.5,44.5 C 381.833,44.5 381.5,44.8333 381.5,45.5C 379.825,43.8212 378.992,41.8212 379,39.5C 380.669,40.8463 381.836,42.513 382.5,44.5 Z"/></g>
<g><path style="opacity:0.494" fill="#78bb97" d="M 384.5,42.5 C 386.262,43.2623 387.262,44.5956 387.5,46.5C 386.5,45.8333 385.5,45.1667 384.5,44.5C 384.5,43.8333 384.5,43.1667 384.5,42.5 Z"/></g>
<g><path style="opacity:0.961" fill="#c4e0d0" d="M 372.5,31.5 C 371.5,32.8333 370.5,34.1667 369.5,35.5C 368.833,36.5 368.167,37.5 367.5,38.5C 362.722,42.9401 357.388,46.6068 351.5,49.5C 351.167,49.5 350.833,49.5 350.5,49.5C 349.209,49.7373 348.209,49.404 347.5,48.5C 349.38,48.7709 350.713,48.1042 351.5,46.5C 355.732,44.5998 359.399,41.9331 362.5,38.5C 365.825,36.1695 369.158,33.8361 372.5,31.5 Z"/></g>
<g><path style="opacity:0.976" fill="#e4f0e9" d="M 384.5,44.5 C 385.5,45.1667 386.5,45.8333 387.5,46.5C 387.427,48.0269 388.094,49.0269 389.5,49.5C 389.5,50.1667 389.5,50.8333 389.5,51.5C 388.5,50.8333 387.5,50.1667 386.5,49.5C 385.833,49.5 385.5,49.1667 385.5,48.5C 385.167,47.1667 384.833,45.8333 384.5,44.5 Z"/></g>
<g><path style="opacity:0.427" fill="#7abc98" d="M 393.5,9.5 C 393.842,8.66175 394.508,8.32842 395.5,8.5C 396.241,22.4961 396.907,36.4961 397.5,50.5C 397.5,52.5 397.5,54.5 397.5,56.5C 397.167,56.5 396.833,56.5 396.5,56.5C 396.078,40.6448 395.078,24.9782 393.5,9.5 Z"/></g>
<g><path style="opacity:0.188" fill="#5aac80" d="M 381.5,45.5 C 381.833,45.5 382.167,45.5 382.5,45.5C 382.328,46.4916 382.662,47.1583 383.5,47.5C 384.038,49.1172 384.371,50.7839 384.5,52.5C 383.833,51.8333 383.167,51.1667 382.5,50.5C 381.962,48.8828 381.629,47.2161 381.5,45.5 Z"/></g>
<g><path style="opacity:0.576" fill="#81bf9d" d="M 382.5,45.5 C 382.5,45.1667 382.5,44.8333 382.5,44.5C 383.167,44.5 383.833,44.5 384.5,44.5C 384.833,45.8333 385.167,47.1667 385.5,48.5C 384.833,48.1667 384.167,47.8333 383.5,47.5C 383.672,46.5084 383.338,45.8417 382.5,45.5 Z"/></g>
<g><path style="opacity:0.804" fill="#83c09f" d="M 351.5,31.5 C 349.32,33.8478 347.32,36.3478 345.5,39C 346.333,41.5 347.167,44 348,46.5C 348.986,47.1712 350.153,47.1712 351.5,46.5C 350.713,48.1042 349.38,48.7709 347.5,48.5C 346.305,44.7139 345.638,44.7139 345.5,48.5C 344.732,47.7375 344.232,46.7375 344,45.5C 343.589,50.5195 343.089,55.5195 342.5,60.5C 341.034,54.8548 341.368,49.1882 343.5,43.5C 344.687,44.8938 345.354,44.7271 345.5,43C 343.706,37.2721 345.706,33.4388 351.5,31.5 Z"/></g>
<g><path style="opacity:0.537" fill="#85c1a2" d="M 387.5,46.5 C 388.906,46.9731 389.573,47.9731 389.5,49.5C 388.094,49.0269 387.427,48.0269 387.5,46.5 Z"/></g>
<g><path style="opacity:0.659" fill="#8dc5a6" d="M 412.5,29.5 C 415.35,33.5227 417.35,38.0227 418.5,43C 415.549,46.9541 412.216,50.6207 408.5,54C 410.066,54.2997 411.399,53.7997 412.5,52.5C 411.578,54.8163 409.911,56.483 407.5,57.5C 407.631,56.7611 407.464,56.0944 407,55.5C 406.329,56.2524 405.496,56.5858 404.5,56.5C 408.63,51.8688 412.963,47.3688 417.5,43C 415.127,38.7559 413.461,34.2559 412.5,29.5 Z"/></g>
<g><path style="opacity:0.667" fill="#86c1a0" d="M 379.5,49.5 C 378.71,50.7942 377.71,51.9609 376.5,53C 378.047,53.3334 379.38,52.8334 380.5,51.5C 381.107,51.6236 381.44,51.9569 381.5,52.5C 378.149,54.8586 374.815,57.1919 371.5,59.5C 372.625,57.8712 373.959,56.3712 375.5,55C 374.906,54.5357 374.239,54.369 373.5,54.5C 373.5,54.1667 373.5,53.8333 373.5,53.5C 375.246,51.7484 377.246,50.4151 379.5,49.5 Z"/></g>
<g><path style="opacity:0.537" fill="#8cc5a5" d="M 350.5,49.5 C 350.833,49.5 351.167,49.5 351.5,49.5C 355.377,51.6853 359.377,53.6853 363.5,55.5C 359.515,54.5119 355.515,53.5119 351.5,52.5C 350.89,51.609 350.557,50.609 350.5,49.5 Z"/></g>
<g><path style="opacity:0.129" fill="#74b993" d="M 386.5,49.5 C 387.5,50.1667 388.5,50.8333 389.5,51.5C 389.5,52.1667 389.5,52.8333 389.5,53.5C 387.738,52.7377 386.738,51.4044 386.5,49.5 Z"/></g>
<g><path style="opacity:0.725" fill="#83c09e" d="M 389.5,49.5 C 391.587,50.5846 392.92,52.2512 393.5,54.5C 392.167,53.5 390.833,52.5 389.5,51.5C 389.5,50.8333 389.5,50.1667 389.5,49.5 Z"/></g>
<g><path style="opacity:0.558" fill="#90c7a9" d="M 416.5,48.5 C 416.56,47.9569 416.893,47.6236 417.5,47.5C 418.817,56.8608 418.65,66.1941 417,75.5C 415.414,77.6705 414.08,80.0038 413,82.5C 412.329,83.2524 411.496,83.5858 410.5,83.5C 412.589,80.3226 414.423,76.9892 416,73.5C 417.474,65.0249 417.641,56.6916 416.5,48.5 Z"/></g>
<g><path style="opacity:0.475" fill="#7abc99" d="M 351.5,52.5 C 354.957,54.3913 358.624,56.058 362.5,57.5C 363.298,57.9569 363.631,58.6236 363.5,59.5C 359.526,57.8485 355.526,56.1818 351.5,54.5C 350.893,54.6236 350.56,54.9569 350.5,55.5C 349.115,54.0527 349.448,53.0527 351.5,52.5 Z"/></g>
<g><path style="opacity:0.993" fill="#e2f0e8" d="M 382.5,21.5 C 382.5,22.1667 382.5,22.8333 382.5,23.5C 382.672,24.4916 382.338,25.1583 381.5,25.5C 379.738,26.2623 378.738,27.5956 378.5,29.5C 375.833,31.1667 375.833,32.8333 378.5,34.5C 378.738,36.4044 379.738,37.7377 381.5,38.5C 381.738,40.4044 382.738,41.7377 384.5,42.5C 384.5,43.1667 384.5,43.8333 384.5,44.5C 383.833,44.5 383.167,44.5 382.5,44.5C 381.836,42.513 380.669,40.8463 379,39.5C 378.992,41.8212 379.825,43.8212 381.5,45.5C 381.629,47.2161 381.962,48.8828 382.5,50.5C 382.672,51.4916 382.338,52.1583 381.5,52.5C 381.44,51.9569 381.107,51.6236 380.5,51.5C 379.38,52.8334 378.047,53.3334 376.5,53C 377.71,51.9609 378.71,50.7942 379.5,49.5C 379.5,49.1667 379.5,48.8333 379.5,48.5C 379.244,46.0628 378.577,43.7294 377.5,41.5C 376.743,40.2267 376.077,40.2267 375.5,41.5C 373.584,45.1629 372.584,49.1629 372.5,53.5C 372.5,54.1667 372.833,54.5 373.5,54.5C 374.239,54.369 374.906,54.5357 375.5,55C 373.959,56.3712 372.625,57.8712 371.5,59.5C 371.5,60.1667 371.5,60.8333 371.5,61.5C 371.692,64.6008 372.358,67.6008 373.5,70.5C 376.833,71.5441 379.499,70.5441 381.5,67.5C 382.833,67.1667 384.167,66.8333 385.5,66.5C 384.167,67.8333 382.833,69.1667 381.5,70.5C 379.973,70.427 378.973,71.0937 378.5,72.5C 374.91,73.6284 371.577,75.295 368.5,77.5C 367.537,77.0302 367.537,76.3635 368.5,75.5C 368.973,74.0937 369.973,73.427 371.5,73.5C 372.043,73.44 372.376,73.1067 372.5,72.5C 371.512,69.5499 370.679,66.5499 370,63.5C 369.8,61.6803 368.966,60.347 367.5,59.5C 366.167,59.5 364.833,59.5 363.5,59.5C 363.631,58.6236 363.298,57.9569 362.5,57.5C 358.624,56.058 354.957,54.3913 351.5,52.5C 355.515,53.5119 359.515,54.5119 363.5,55.5C 364.791,55.2627 365.791,55.596 366.5,56.5C 367.209,57.404 368.209,57.7373 369.5,57.5C 371.248,51.2546 372.582,44.9213 373.5,38.5C 374.788,36.9652 374.788,35.2985 373.5,33.5C 372.378,34.6302 371.044,35.2969 369.5,35.5C 370.5,34.1667 371.5,32.8333 372.5,31.5C 374.833,31.1667 376.167,29.8333 376.5,27.5C 378.5,25.5 380.5,23.5 382.5,21.5 Z M 375.5,41.5 C 376.833,43.8333 378.167,46.1667 379.5,48.5C 379.5,48.8333 379.5,49.1667 379.5,49.5C 377.246,50.4151 375.246,51.7484 373.5,53.5C 374.486,49.5568 375.152,45.5568 375.5,41.5 Z"/></g>
<g><path style="opacity:0.294" fill="#64b187" d="M 375.5,41.5 C 376.077,40.2267 376.743,40.2267 377.5,41.5C 378.577,43.7294 379.244,46.0628 379.5,48.5C 378.167,46.1667 376.833,43.8333 375.5,41.5 Z"/></g>
<g><path style="opacity:0.361" fill="#72b892" d="M 375.5,41.5 C 375.152,45.5568 374.486,49.5568 373.5,53.5C 373.167,53.5 372.833,53.5 372.5,53.5C 372.584,49.1629 373.584,45.1629 375.5,41.5 Z"/></g>
<g><path style="opacity:0.369" fill="#66b288" d="M 389.5,53.5 C 391.984,55.8003 393.984,58.4669 395.5,61.5C 392.529,59.5574 390.529,56.8908 389.5,53.5 Z"/></g>
<g><path style="opacity:0.902" fill="#fefffe" d="M -0.5,98.5 C -0.5,90.5 -0.5,82.5 -0.5,74.5C 3.16248,66.6743 9.16248,61.5076 17.5,59C 30.5,58.3333 43.5,58.3333 56.5,59C 57.4925,77.4235 57.8259,95.9235 57.5,114.5C 52.8333,114.5 48.1667,114.5 43.5,114.5C 43.719,113.325 43.3857,112.325 42.5,111.5C 37.2847,113.91 31.7847,114.91 26,114.5C 16.4189,115.542 8.75224,112.209 3,104.5C 2.05898,102.273 0.892318,100.273 -0.5,98.5 Z M 21.5,72.5 C 28.5316,72.1697 35.5316,72.503 42.5,73.5C 43.6103,78.1113 43.7769,82.778 43,87.5C 41.1415,96.6147 35.4748,100.948 26,100.5C 21.7063,100.852 18.0396,99.5183 15,96.5C 13.424,90.6123 13.0906,84.6123 14,78.5C 15.7074,75.4096 18.2074,73.4096 21.5,72.5 Z"/></g>
<g><path style="opacity:0.885" fill="#fefffe" d="M 156.5,58.5 C 170.079,58.177 183.579,58.5103 197,59.5C 197.5,77.8303 197.667,96.1636 197.5,114.5C 192.821,114.666 188.155,114.499 183.5,114C 182.874,113.25 182.374,112.416 182,111.5C 150.226,121.05 135.893,109.384 139,76.5C 141.683,67.318 147.517,61.318 156.5,58.5 Z M 161.5,72.5 C 168.422,72.1878 175.256,72.5212 182,73.5C 182.667,79.1667 182.667,84.8333 182,90.5C 177.455,99.2483 170.288,102.415 160.5,100C 157.804,99.3102 155.637,97.8102 154,95.5C 152.508,90.5893 152.174,85.5893 153,80.5C 154.419,76.2452 157.253,73.5785 161.5,72.5 Z"/></g>
<g><path style="opacity:0.892" fill="#fefffe" d="M 209.5,58.5 C 213.846,58.3343 218.179,58.501 222.5,59C 223.047,59.9246 223.713,60.7579 224.5,61.5C 226.667,60.2081 229,59.3747 231.5,59C 239.159,58.5003 246.826,58.3336 254.5,58.5C 254.8,63.0986 254.467,67.5986 253.5,72C 247.5,72.3333 241.5,72.6667 235.5,73C 229.412,74.0901 225.579,77.5901 224,83.5C 223.5,93.828 223.334,104.161 223.5,114.5C 218.833,114.5 214.167,114.5 209.5,114.5C 209.5,95.8333 209.5,77.1667 209.5,58.5 Z"/></g>
<g><path style="opacity:0.884" fill="#fefffe" d="M 278.5,58.5 C 306.941,54.1166 320.108,66.1166 318,94.5C 315.677,104.156 309.843,110.656 300.5,114C 266.887,118.593 254.053,104.426 262,71.5C 265.969,65.0097 271.469,60.6763 278.5,58.5 Z M 282.5,72.5 C 286.846,72.3343 291.179,72.501 295.5,73C 302.051,75.0774 304.718,79.5774 303.5,86.5C 304.471,97.0273 299.638,101.694 289,100.5C 276.192,100.607 271.192,94.2738 274,81.5C 275.015,76.6543 277.849,73.6543 282.5,72.5 Z"/></g>
<g><path style="opacity:0.031" fill="#6ab48c" d="M 400.5,48.5 C 400.159,52.1595 400.825,55.4928 402.5,58.5C 402.027,59.9063 401.027,60.573 399.5,60.5C 399.183,56.2984 399.517,52.2984 400.5,48.5 Z"/></g>
<g><path style="opacity:0.988" fill="#b7dac5" d="M 407.5,57.5 C 405.833,59.8333 403.833,61.8333 401.5,63.5C 401.167,63.5 400.833,63.5 400.5,63.5C 400.443,62.391 400.11,61.391 399.5,60.5C 401.027,60.573 402.027,59.9063 402.5,58.5C 402.833,57.5 403.5,56.8333 404.5,56.5C 405.496,56.5858 406.329,56.2524 407,55.5C 407.464,56.0944 407.631,56.7611 407.5,57.5 Z"/></g>
<g><path style="opacity:0.808" fill="#8bc4a5" d="M 350.5,55.5 C 352.267,57.7916 353.267,60.4582 353.5,63.5C 351.415,61.3155 350.415,58.6489 350.5,55.5 Z"/></g>
<g><path style="opacity:0.957" fill="#bdddcb" d="M 382.5,50.5 C 383.167,51.1667 383.833,51.8333 384.5,52.5C 386.441,56.7181 388.108,61.0515 389.5,65.5C 388.272,64.6935 387.272,63.6935 386.5,62.5C 385.5,61.1667 384.5,59.8333 383.5,58.5C 382.262,56.7857 381.595,54.7857 381.5,52.5C 382.338,52.1583 382.672,51.4916 382.5,50.5 Z"/></g>
<g><path style="opacity:0.02" fill="#86c2a2" d="M 383.5,58.5 C 384.5,59.8333 385.5,61.1667 386.5,62.5C 386.567,63.9587 386.234,65.2921 385.5,66.5C 384.167,66.8333 382.833,67.1667 381.5,67.5C 382.574,66.1154 383.907,64.9487 385.5,64C 384.139,62.4157 383.472,60.5824 383.5,58.5 Z"/></g>
<g><path style="opacity:0.733" fill="#8bc4a5" d="M 395.5,61.5 C 397.225,61.8425 397.725,62.8425 397,64.5C 395.5,66 394,67.5 392.5,69C 391.563,69.6917 390.897,69.525 390.5,68.5C 392.63,66.8729 394.63,65.0396 396.5,63C 395.944,62.6174 395.611,62.1174 395.5,61.5 Z"/></g>
<g><path style="opacity:0.122" fill="#69b48c" d="M 346.5,51.5 C 350.436,61.1321 354.103,70.9654 357.5,81C 354.493,89.8753 350.827,98.3753 346.5,106.5C 349.432,98.0431 352.766,89.7098 356.5,81.5C 352.55,71.6496 349.217,61.6496 346.5,51.5 Z"/></g>
<g><path style="opacity:0.455" fill="#67b38a" d="M 367.5,59.5 C 368.966,60.347 369.8,61.6803 370,63.5C 370.679,66.5499 371.512,69.5499 372.5,72.5C 372.376,73.1067 372.043,73.44 371.5,73.5C 369.859,68.9393 368.526,64.2727 367.5,59.5 Z"/></g>
<g><path style="opacity:0.165" fill="#81bf9d" d="M 385.5,66.5 C 387.844,66.979 389.178,68.479 389.5,71C 388.015,73.6517 386.015,75.8184 383.5,77.5C 383.167,77.5 382.833,77.5 382.5,77.5C 384.564,75.4384 386.231,73.105 387.5,70.5C 387.167,69.8333 386.833,69.1667 386.5,68.5C 384.925,69.4565 383.258,70.1231 381.5,70.5C 382.833,69.1667 384.167,67.8333 385.5,66.5 Z"/></g>
<g><path style="opacity:0.965" fill="#e1efe8" d="M 398.5,41.5 C 399.167,42.5 399.833,43.5 400.5,44.5C 400.5,45.8333 400.5,47.1667 400.5,48.5C 399.517,52.2984 399.183,56.2984 399.5,60.5C 400.11,61.391 400.443,62.391 400.5,63.5C 399.892,68.9443 400.558,73.9443 402.5,78.5C 402.5,80.1667 402.5,81.8333 402.5,83.5C 401.596,84.209 401.263,85.209 401.5,86.5C 400.839,87.7175 400.172,89.0508 399.5,90.5C 398.702,90.0431 398.369,89.3764 398.5,88.5C 399.338,88.1583 399.672,87.4916 399.5,86.5C 399.5,86.1667 399.5,85.8333 399.5,85.5C 399.81,82.2869 399.477,79.2869 398.5,76.5C 398.173,73.5182 398.173,70.6849 398.5,68C 397.906,67.5357 397.239,67.369 396.5,67.5C 394.521,68.8121 392.855,70.4788 391.5,72.5C 393.003,76.8399 395.003,80.8399 397.5,84.5C 397.5,85.1667 397.5,85.8333 397.5,86.5C 397.167,86.5 396.833,86.5 396.5,86.5C 395.833,85.8333 395.167,85.1667 394.5,84.5C 393.554,80.6076 392.054,76.9409 390,73.5C 388.293,75.0375 386.793,76.7041 385.5,78.5C 384.508,78.6716 383.842,78.3382 383.5,77.5C 386.015,75.8184 388.015,73.6517 389.5,71C 389.178,68.479 387.844,66.979 385.5,66.5C 386.234,65.2921 386.567,63.9587 386.5,62.5C 387.272,63.6935 388.272,64.6935 389.5,65.5C 390.404,66.209 390.737,67.209 390.5,68.5C 390.897,69.525 391.563,69.6917 392.5,69C 394,67.5 395.5,66 397,64.5C 397.725,62.8425 397.225,61.8425 395.5,61.5C 393.984,58.4669 391.984,55.8003 389.5,53.5C 389.5,52.8333 389.5,52.1667 389.5,51.5C 390.833,52.5 392.167,53.5 393.5,54.5C 394.031,56.5441 395.198,58.2107 397,59.5C 397.464,58.9056 397.631,58.2389 397.5,57.5C 397.5,57.1667 397.5,56.8333 397.5,56.5C 397.5,54.5 397.5,52.5 397.5,50.5C 398.477,47.7131 398.81,44.7131 398.5,41.5 Z M 396.5,67.5 C 397.239,67.369 397.906,67.5357 398.5,68C 398.173,70.6849 398.173,73.5182 398.5,76.5C 398.806,79.3854 398.473,82.0521 397.5,84.5C 396.462,80.7518 395.129,77.0851 393.5,73.5C 394.519,71.4893 395.519,69.4893 396.5,67.5 Z"/></g>
<g><path style="opacity:0.984" fill="#69b38a" d="M 393.5,54.5 C 394.5,55.1667 395.5,55.8333 396.5,56.5C 396.5,57.1667 396.833,57.5 397.5,57.5C 397.631,58.2389 397.464,58.9056 397,59.5C 395.198,58.2107 394.031,56.5441 393.5,54.5 Z"/></g>
<g><path style="opacity:0.702" fill="#88c2a2" d="M 353.5,63.5 C 355.267,65.7916 356.267,68.4582 356.5,71.5C 354.415,69.3155 353.415,66.6489 353.5,63.5 Z"/></g>
<g><path style="opacity:0.322" fill="#88c3a3" d="M 371.5,61.5 C 372.812,64.4083 374.145,67.4083 375.5,70.5C 377.243,68.9617 379.243,67.9617 381.5,67.5C 379.499,70.5441 376.833,71.5441 373.5,70.5C 372.358,67.6008 371.692,64.6008 371.5,61.5 Z"/></g>
<g><path style="opacity:0.241" fill="#82bf9e" d="M 396.5,67.5 C 395.519,69.4893 394.519,71.4893 393.5,73.5C 395.129,77.0851 396.462,80.7518 397.5,84.5C 395.003,80.8399 393.003,76.8399 391.5,72.5C 392.855,70.4788 394.521,68.8121 396.5,67.5 Z"/></g>
<g><path style="opacity:0.055" fill="#64b188" d="M 381.5,70.5 C 381.027,71.9063 380.027,72.573 378.5,72.5C 378.973,71.0937 379.973,70.427 381.5,70.5 Z"/></g>
<g><path style="opacity:0.129" fill="#55aa7c" d="M 356.5,71.5 C 358.267,73.7916 359.267,76.4582 359.5,79.5C 357.733,77.2084 356.733,74.5418 356.5,71.5 Z"/></g>
<g><path style="opacity:0.012" fill="#7abc98" d="M 394.5,84.5 C 392.503,81.8402 391.003,78.8402 390,75.5C 388.871,77.1412 387.371,78.1412 385.5,78.5C 386.793,76.7041 388.293,75.0375 390,73.5C 392.054,76.9409 393.554,80.6076 394.5,84.5 Z"/></g>
<g><path style="opacity:0.027" fill="#67b28a" d="M 400.5,63.5 C 400.833,63.5 401.167,63.5 401.5,63.5C 401.751,68.5068 402.084,73.5068 402.5,78.5C 400.558,73.9443 399.892,68.9443 400.5,63.5 Z"/></g>
<g><path style="opacity:0.984" fill="#a8d2bb" d="M 378.5,72.5 C 375.165,75.8389 371.165,78.1722 366.5,79.5C 364.973,79.427 363.973,80.0937 363.5,81.5C 362.71,82.4013 361.71,83.0679 360.5,83.5C 360.567,82.0413 360.234,80.7079 359.5,79.5C 362.378,77.8946 365.378,76.5612 368.5,75.5C 367.537,76.3635 367.537,77.0302 368.5,77.5C 371.577,75.295 374.91,73.6284 378.5,72.5 Z"/></g>
<g><path style="opacity:0.008" fill="#59aa7d" d="M 366.5,79.5 C 366.027,80.9063 365.027,81.573 363.5,81.5C 363.973,80.0937 364.973,79.427 366.5,79.5 Z"/></g>
<g><path style="opacity:0.306" fill="#64b288" d="M 342.5,67.5 C 341.637,78.1564 341.47,88.823 342,99.5C 342.786,102.758 344.286,105.424 346.5,107.5C 345.791,108.404 344.791,108.737 343.5,108.5C 343.245,105.984 342.411,103.65 341,101.5C 340.333,91.5 340.333,81.5 341,71.5C 341.21,69.9419 341.71,68.6085 342.5,67.5 Z"/></g>
<g><path style="opacity:0.057" fill="#65b188" d="M 398.5,76.5 C 399.477,79.2869 399.81,82.2869 399.5,85.5C 398.167,85.8333 398.167,86.1667 399.5,86.5C 399.672,87.4916 399.338,88.1583 398.5,88.5C 398.167,87.8333 397.833,87.1667 397.5,86.5C 397.5,85.8333 397.5,85.1667 397.5,84.5C 398.473,82.0521 398.806,79.3854 398.5,76.5 Z"/></g>
<g><path style="opacity:0.188" fill="#72b892" d="M 394.5,84.5 C 395.167,85.1667 395.833,85.8333 396.5,86.5C 396.961,88.5504 397.628,90.5504 398.5,92.5C 398.043,93.2975 397.376,93.6309 396.5,93.5C 395.833,90.5 395.167,87.5 394.5,84.5 Z"/></g>
<g><path style="opacity:0.91" fill="#a8d2ba" d="M 382.5,77.5 C 382.833,77.5 383.167,77.5 383.5,77.5C 383.842,78.3382 384.508,78.6716 385.5,78.5C 381.167,83.5 376.5,88.1667 371.5,92.5C 371.5,91.1667 370.833,90.5 369.5,90.5C 373.527,85.8062 377.86,81.4729 382.5,77.5 Z"/></g>
<g><path style="opacity:0.71" fill="#7cbc99" d="M 402.5,83.5 C 402.338,85.5273 402.505,87.5273 403,89.5C 405.663,87.6664 408.163,85.6664 410.5,83.5C 408.975,87.688 405.975,90.0213 401.5,90.5C 401.5,89.1667 401.5,87.8333 401.5,86.5C 401.263,85.209 401.596,84.209 402.5,83.5 Z"/></g>
<g><path style="opacity:1" fill="#d9ebe1" d="M 369.5,90.5 C 370.833,90.5 371.5,91.1667 371.5,92.5C 370.167,92.5 369.5,93.1667 369.5,94.5C 367.983,94.5106 366.816,95.1772 366,96.5C 365.53,95.4232 365.697,94.4232 366.5,93.5C 367.167,92.1667 368.167,91.1667 369.5,90.5 Z"/></g>
<g><path style="opacity:0.016" fill="#74b993" d="M 359.5,83.5 C 358.597,87.8892 356.931,91.8892 354.5,95.5C 355.087,90.9991 356.754,86.9991 359.5,83.5 Z"/></g>
<g><path style="opacity:0.043" fill="#50a677" d="M 371.5,92.5 C 371.167,93.5 370.5,94.1667 369.5,94.5C 369.5,93.1667 370.167,92.5 371.5,92.5 Z"/></g>
<g><path style="opacity:0.043" fill="#7ebe9c" d="M 421.5,41.5 C 421.833,41.5 422.167,41.5 422.5,41.5C 422.667,52.505 422.5,63.505 422,74.5C 417.433,87.9004 408.267,96.2338 394.5,99.5C 399.935,96.6114 405.268,93.4447 410.5,90C 414.528,86.1133 417.694,81.6133 420,76.5C 421.436,64.9097 421.936,53.243 421.5,41.5 Z"/></g>
<g><path style="opacity:0.341" fill="#73b893" d="M 354.5,95.5 C 354.34,97.153 353.674,98.4863 352.5,99.5C 352.229,97.6203 352.896,96.287 354.5,95.5 Z"/></g>
<g><path style="opacity:0.004" fill="#95c9ad" d="M 366.5,93.5 C 365.697,94.4232 365.53,95.4232 366,96.5C 366.816,95.1772 367.983,94.5106 369.5,94.5C 368.089,96.914 366.089,98.5806 363.5,99.5C 364.625,98.3478 364.625,97.3478 363.5,96.5C 363.856,94.8102 364.856,93.8102 366.5,93.5 Z"/></g>
<g><path style="opacity:0.4" fill="#76ba96" d="M 389.5,96.5 C 387.75,98.3977 385.584,99.731 383,100.5C 382.601,100.272 382.435,99.9382 382.5,99.5C 384.426,97.7073 386.759,96.7073 389.5,96.5 Z"/></g>
<g><path style="opacity:0.302" fill="#6ab48d" d="M 352.5,99.5 C 352.598,101.553 351.931,103.22 350.5,104.5C 350.402,102.447 351.069,100.78 352.5,99.5 Z"/></g>
<g><path style="opacity:0.851" fill="#bfdecd" d="M 363.5,96.5 C 364.625,97.3478 364.625,98.3478 363.5,99.5C 360.065,103.438 356.398,107.271 352.5,111C 354.134,111.494 355.801,111.66 357.5,111.5C 355.735,112.461 353.735,112.795 351.5,112.5C 351.5,111.5 351.5,110.5 351.5,109.5C 355.5,105.167 359.5,100.833 363.5,96.5 Z"/></g>
<g><path style="opacity:0.165" fill="#7dbe9c" d="M 379.5,100.5 C 378.015,103.083 375.682,104.416 372.5,104.5C 374.635,102.929 376.968,101.596 379.5,100.5 Z"/></g>
<g><path style="opacity:0.416" fill="#7dbd9a" d="M 388.5,102.5 C 386.819,104.008 384.819,105.008 382.5,105.5C 383.911,103.461 385.911,102.461 388.5,102.5 Z"/></g>
<g><path style="opacity:0.471" fill="#87c2a2" d="M 336.5,74.5 C 337.33,83.6577 337.83,92.991 338,102.5C 339.881,106.307 341.047,110.307 341.5,114.5C 339.204,110.131 337.371,105.464 336,100.5C 335.368,91.8144 335.534,83.1477 336.5,74.5 Z"/></g>
<g><path style="opacity:0.363" fill="#80bf9e" d="M 370.5,105.5 C 367.912,107.625 364.912,108.958 361.5,109.5C 364.088,107.375 367.088,106.042 370.5,105.5 Z"/></g>
<g><path style="opacity:0.761" fill="#8dc5a6" d="M 363.5,96.5 C 359.5,100.833 355.5,105.167 351.5,109.5C 350.279,110.028 349.113,110.695 348,111.5C 347.761,110.212 348.261,109.212 349.5,108.5C 353.892,104.103 358.558,100.103 363.5,96.5 Z"/></g>
<g><path style="opacity:0.294" fill="#78bb97" d="M 379.5,106.5 C 377.365,108.071 375.032,109.404 372.5,110.5C 373.985,107.917 376.318,106.584 379.5,106.5 Z"/></g>
<g><path style="opacity:0.483" fill="#7dbe9b" d="M 371.5,110.5 C 362.002,116.744 352.002,118.077 341.5,114.5C 347.418,115.621 353.418,115.788 359.5,115C 363.219,112.636 367.219,111.136 371.5,110.5 Z"/></g>
<g><path style="opacity:0.775" fill="#fefffe" d="M 302.5,139.5 C 312.08,138.756 317.414,143.089 318.5,152.5C 313.813,153.256 310.147,151.756 307.5,148C 304.975,147.104 302.808,147.604 301,149.5C 298.649,155.99 299.149,162.156 302.5,168C 307.444,169.367 310.11,167.534 310.5,162.5C 308.5,162.5 306.5,162.5 304.5,162.5C 304.5,160.167 304.5,157.833 304.5,155.5C 309.167,155.5 313.833,155.5 318.5,155.5C 320.278,172.904 312.945,179.071 296.5,174C 294.106,172.048 292.606,169.548 292,166.5C 291.333,160.833 291.333,155.167 292,149.5C 293.56,143.996 297.06,140.662 302.5,139.5 Z"/></g>
<g><path style="opacity:0.787" fill="#fefffe" d="M 149.5,140.5 C 152.448,140.223 155.281,140.556 158,141.5C 160.667,146.833 163.333,152.167 166,157.5C 168.227,152.046 170.727,146.713 173.5,141.5C 176.428,140.516 179.428,140.183 182.5,140.5C 182.5,152.5 182.5,164.5 182.5,176.5C 179.552,176.777 176.719,176.444 174,175.5C 173.667,170.5 173.333,165.5 173,160.5C 171.667,163.167 170.333,165.833 169,168.5C 166.861,169.769 164.695,169.769 162.5,168.5C 160.726,165.285 159.226,161.952 158,158.5C 157.501,164.491 157.334,170.491 157.5,176.5C 154.833,176.5 152.167,176.5 149.5,176.5C 149.5,164.5 149.5,152.5 149.5,140.5 Z"/></g>
<g><path style="opacity:0.714" fill="#fefffe" d="M 189.5,140.5 C 192.5,140.5 195.5,140.5 198.5,140.5C 198.667,152.171 198.5,163.838 198,175.5C 195.333,176.833 192.667,176.833 190,175.5C 189.5,163.838 189.333,152.171 189.5,140.5 Z"/></g>
<g><path style="opacity:0.793" fill="#fefffe" d="M 205.5,140.5 C 208.187,140.336 210.854,140.503 213.5,141C 217.333,146.833 221.167,152.667 225,158.5C 225.499,152.509 225.666,146.509 225.5,140.5C 228.167,140.5 230.833,140.5 233.5,140.5C 233.5,152.5 233.5,164.5 233.5,176.5C 231.143,176.663 228.81,176.497 226.5,176C 222.667,170.167 218.833,164.333 215,158.5C 214.667,164.167 214.333,169.833 214,175.5C 211.281,176.444 208.448,176.777 205.5,176.5C 205.5,164.5 205.5,152.5 205.5,140.5 Z"/></g>
<g><path style="opacity:0.802" fill="#fefffe" d="M 241.5,140.5 C 244.167,140.5 246.833,140.5 249.5,140.5C 249.5,152.5 249.5,164.5 249.5,176.5C 246.833,176.5 244.167,176.5 241.5,176.5C 241.5,164.5 241.5,152.5 241.5,140.5 Z"/></g>
<g><path style="opacity:0.792" fill="#fefffe" d="M 257.5,140.5 C 260.247,140.187 262.914,140.52 265.5,141.5C 268.751,147.004 272.251,152.338 276,157.5C 276.499,151.843 276.666,146.176 276.5,140.5C 279.5,140.5 282.5,140.5 285.5,140.5C 285.667,152.171 285.5,163.838 285,175.5C 282.534,176.777 280.034,176.777 277.5,175.5C 273.417,169.669 269.584,163.669 266,157.5C 265.5,163.825 265.334,170.158 265.5,176.5C 262.833,176.5 260.167,176.5 257.5,176.5C 257.5,164.5 257.5,152.5 257.5,140.5 Z"/></g>
<g><path style="opacity:0.449" fill="#fefffe" d="M 184.5,200.5 C 183.5,200.5 182.5,200.5 181.5,200.5C 181.5,196.833 181.5,193.167 181.5,189.5C 180.127,189.343 178.793,189.51 177.5,190C 178.097,191.628 177.763,193.295 176.5,195C 174.527,195.495 172.527,195.662 170.5,195.5C 170.5,197.167 170.5,198.833 170.5,200.5C 169.5,200.5 168.5,200.5 167.5,200.5C 167.5,195.833 167.5,191.167 167.5,186.5C 171.007,185.994 174.174,186.66 177,188.5C 180.494,186.623 184.327,185.956 188.5,186.5C 188.5,187.5 188.5,188.5 188.5,189.5C 187.167,189.5 185.833,189.5 184.5,189.5C 184.5,193.167 184.5,196.833 184.5,200.5 Z M 170.5,189.5 C 171.833,189.5 173.167,189.5 174.5,189.5C 174.5,190.5 174.5,191.5 174.5,192.5C 173.167,192.5 171.833,192.5 170.5,192.5C 170.5,191.5 170.5,190.5 170.5,189.5 Z"/></g>
<g><path style="opacity:0.451" fill="#fefffe" d="M 212.5,196.5 C 211.167,197.5 211.167,198.5 212.5,199.5C 212.5,199.833 212.5,200.167 212.5,200.5C 209.833,200.5 207.167,200.5 204.5,200.5C 204.167,199.167 203.833,199.167 203.5,200.5C 202.5,200.5 201.5,200.5 200.5,200.5C 199.866,199.053 198.699,198.387 197,198.5C 195.624,198.684 194.791,199.351 194.5,200.5C 193.5,200.5 192.5,200.5 191.5,200.5C 193.036,195.891 194.37,191.224 195.5,186.5C 196.822,186.33 197.989,186.663 199,187.5C 200.53,191.09 201.864,194.757 203,198.5C 203.333,196.167 203.667,193.833 204,191.5C 205.356,190.62 206.856,190.286 208.5,190.5C 208.176,187.306 209.342,186.306 212,187.5C 212.498,190.482 212.665,193.482 212.5,196.5 Z M 196.5,193.5 C 198.337,193.639 198.67,194.306 197.5,195.5C 196.702,195.043 196.369,194.376 196.5,193.5 Z M 206.5,193.5 C 207.649,193.791 208.316,194.624 208.5,196C 208.167,196.833 207.833,197.667 207.5,198.5C 206.548,196.955 206.215,195.288 206.5,193.5 Z"/></g>
<g><path style="opacity:0.446" fill="#fefffe" d="M 246.5,200.5 C 245.5,200.5 244.5,200.5 243.5,200.5C 243.5,195.833 243.5,191.167 243.5,186.5C 244.5,186.5 245.5,186.5 246.5,186.5C 246.5,191.167 246.5,195.833 246.5,200.5 Z"/></g>
<g><path style="opacity:0.463" fill="#fefffe" d="M 266.5,200.5 C 263.833,200.5 261.167,200.5 258.5,200.5C 258.167,195.167 257.833,195.167 257.5,200.5C 256.5,200.5 255.5,200.5 254.5,200.5C 254.5,198.167 254.5,195.833 254.5,193.5C 253.5,193.5 252.5,193.5 251.5,193.5C 251.5,195.833 251.5,198.167 251.5,200.5C 250.5,200.5 249.5,200.5 248.5,200.5C 248.5,197.167 248.5,193.833 248.5,190.5C 252.793,189.536 255.96,190.869 258,194.5C 258.307,191.124 260.14,189.79 263.5,190.5C 263.5,189.167 263.5,187.833 263.5,186.5C 264.5,186.5 265.5,186.5 266.5,186.5C 266.5,191.167 266.5,195.833 266.5,200.5 Z M 261.5,193.5 C 262.649,193.791 263.316,194.624 263.5,196C 262.849,199.078 261.849,199.078 260.5,196C 261.252,195.329 261.586,194.496 261.5,193.5 Z"/></g>
<g><path style="opacity:0.252" fill="#fefffe" d="M 306.5,186.5 C 307.5,186.5 308.5,186.5 309.5,186.5C 309.5,187.5 309.5,188.5 309.5,189.5C 308.5,189.5 307.5,189.5 306.5,189.5C 306.5,188.5 306.5,187.5 306.5,186.5 Z"/></g>
<g><path style="opacity:0.449" fill="#fefffe" d="M 221.5,200.5 C 218.833,200.5 216.167,200.5 213.5,200.5C 213.5,199.833 213.167,199.5 212.5,199.5C 212.5,198.5 212.5,197.5 212.5,196.5C 212.507,190.846 215.174,189.18 220.5,191.5C 221.407,194.421 221.74,197.421 221.5,200.5 Z M 217.5,196.5 C 218.043,196.56 218.376,196.893 218.5,197.5C 217.635,198.583 216.635,198.749 215.5,198C 216.416,197.722 217.082,197.222 217.5,196.5 Z"/></g>
<g><path style="opacity:0.436" fill="#fefffe" d="M 237.5,200.5 C 235.167,200.5 232.833,200.5 230.5,200.5C 229.631,198.283 229.298,195.95 229.5,193.5C 228.167,193.5 226.833,193.5 225.5,193.5C 225.5,195.833 225.5,198.167 225.5,200.5C 224.5,200.5 223.5,200.5 222.5,200.5C 222.5,197.167 222.5,193.833 222.5,190.5C 227.249,191.086 231.915,191.253 236.5,191C 238.813,193.939 239.146,197.105 237.5,200.5 Z M 232.5,193.5 C 235.956,194.536 236.29,196.203 233.5,198.5C 232.548,196.955 232.215,195.288 232.5,193.5 Z"/></g>
<g><path style="opacity:0.443" fill="#fefffe" d="M 275.5,200.5 C 273.167,200.5 270.833,200.5 268.5,200.5C 266.941,197.13 267.274,193.964 269.5,191C 272.025,190.104 274.192,190.604 276,192.5C 276.722,195.261 276.555,197.927 275.5,200.5 Z M 271.5,193.5 C 272.649,193.791 273.316,194.624 273.5,196C 272.706,199.122 271.706,199.122 270.5,196C 270.743,195.098 271.077,194.265 271.5,193.5 Z"/></g>
<g><path style="opacity:0.441" fill="#fefffe" d="M 286.5,200.5 C 285.5,200.5 284.5,200.5 283.5,200.5C 283.5,198.167 283.5,195.833 283.5,193.5C 282.5,193.5 281.5,193.5 280.5,193.5C 280.5,195.833 280.5,198.167 280.5,200.5C 279.5,200.5 278.5,200.5 277.5,200.5C 277.5,197.167 277.5,193.833 277.5,190.5C 285.336,189.34 288.336,192.673 286.5,200.5 Z"/></g>
<g><path style="opacity:0.421" fill="#fefffe" d="M 304.5,200.5 C 301.833,200.5 299.167,200.5 296.5,200.5C 296.5,199.5 296.5,198.5 296.5,197.5C 297.552,197.649 298.552,197.483 299.5,197C 298.333,196.5 297.5,195.667 297,194.5C 295.872,196.345 295.372,198.345 295.5,200.5C 293.167,200.5 290.833,200.5 288.5,200.5C 286.916,197.094 287.25,193.928 289.5,191C 292.528,189.86 294.695,190.694 296,193.5C 298.196,190.875 301.03,189.875 304.5,190.5C 304.5,191.5 304.5,192.5 304.5,193.5C 302.801,193.34 301.134,193.506 299.5,194C 304.894,193.544 306.56,195.711 304.5,200.5 Z M 290.5,196.5 C 291.473,196.987 292.473,197.487 293.5,198C 291.843,198.725 290.843,198.225 290.5,196.5 Z"/></g>
<g><path style="opacity:0.44" fill="#fefffe" d="M 318.5,200.5 C 315.833,200.5 313.167,200.5 310.5,200.5C 310.167,199.167 309.833,199.167 309.5,200.5C 308.5,200.5 307.5,200.5 306.5,200.5C 306.5,197.167 306.5,193.833 306.5,190.5C 307.5,190.5 308.5,190.5 309.5,190.5C 309.338,192.527 309.505,194.527 310,196.5C 311.037,194.782 311.537,192.949 311.5,191C 313.769,190.242 315.936,190.409 318,191.5C 318.498,194.482 318.665,197.482 318.5,200.5 Z M 314.5,196.5 C 315.043,196.56 315.376,196.893 315.5,197.5C 314.635,198.583 313.635,198.749 312.5,198C 313.416,197.722 314.082,197.222 314.5,196.5 Z"/></g>
</svg>
